<svg width="462" height="452" viewBox="0 0 462 452" fill="none" xmlns="http://www.w3.org/2000/svg">
<path d="M128.085 380.745C126.776 380.939 125.235 381.041 124.923 382.601C124.681 383.809 124.773 385.053 125.497 386.102C126.735 387.893 128.574 388.939 130.789 388.57C132.77 388.24 135.49 386.445 135.49 384.216C135.49 382.959 134.585 381.694 133.836 380.754C133.033 379.746 132.34 378.686 131.329 377.861C129.966 376.749 128.865 376.64 127.64 377.951C126.969 378.669 126.335 379.647 126.041 380.587C125.897 381.05 126.003 381.421 126.003 381.885C126.003 382.504 125.888 381.591 126.003 381.285" stroke="#00ADB5" stroke-opacity="0.5" stroke-linecap="round" stroke-linejoin="round"/>
<path d="M134.873 384.287C135.987 385.276 136.932 386.171 138.903 386.219C140.283 386.253 141.662 385.909 142.955 385.538C143.88 385.273 146.848 383.867 144.444 383.753" stroke="#00ADB5" stroke-opacity="0.5" stroke-linecap="round" stroke-linejoin="round"/>
<path d="M146.366 375.655C144.895 377.279 142.865 380.461 143.627 382.901C143.895 383.758 144.285 384.336 144.789 385.069C145.803 386.544 147.374 386.084 148.799 385.699C149.833 385.419 151.061 384.54 151.456 383.539C152.002 382.158 150.864 379.999 149.914 379.048C148.852 377.987 148.011 376.695 146.828 375.766C146.514 375.519 146.275 375.251 145.864 375.342C145.403 375.444 145.213 375.886 145.826 375.886" stroke="#00ADB5" stroke-opacity="0.5" stroke-linecap="round" stroke-linejoin="round"/>
<path d="M250.339 153.101C249.029 153.294 247.488 153.397 247.176 154.956C246.935 156.165 247.026 157.409 247.751 158.457C248.989 160.249 250.828 161.294 253.043 160.925C255.023 160.595 257.743 158.801 257.743 156.572C257.743 155.315 256.838 154.05 256.089 153.109C255.287 152.101 254.593 151.041 253.583 150.217C252.22 149.105 251.119 148.996 249.893 150.307C249.223 151.024 248.588 152.003 248.295 152.942C248.15 153.405 248.256 153.776 248.256 154.241C248.256 154.859 248.142 153.947 248.256 153.641" stroke="#00ADB5" stroke-opacity="0.5" stroke-linecap="round" stroke-linejoin="round"/>
<path d="M257.126 156.642C258.241 157.632 259.186 158.527 261.156 158.575C262.536 158.609 263.915 158.264 265.208 157.894C266.134 157.628 269.102 156.223 266.697 156.109" stroke="#00ADB5" stroke-opacity="0.5" stroke-linecap="round" stroke-linejoin="round"/>
<path d="M268.619 148.01C267.148 149.634 265.118 152.817 265.881 155.256C266.149 156.114 266.538 156.692 267.042 157.424C268.056 158.899 269.627 158.44 271.053 158.054C272.086 157.775 273.314 156.895 273.71 155.895C274.256 154.514 273.118 152.355 272.167 151.404C271.105 150.342 270.264 149.051 269.082 148.122C268.767 147.874 268.528 147.606 268.118 147.697C267.656 147.8 267.466 148.242 268.079 148.242" stroke="#00ADB5" stroke-opacity="0.5" stroke-linecap="round" stroke-linejoin="round"/>
<path d="M137.53 105.886C145.081 102.288 151.185 96.3397 157.323 90.7305C162.148 86.3219 167.207 81.9656 172.531 78.1611C173.581 77.4104 175.065 75.8997 176.486 76.5436C177.893 77.1816 178.704 78.9188 179.816 79.9475C182.555 82.4808 185.018 85.5765 187.27 88.5536C189.749 91.8308 186.032 93.6446 183.734 95.7902C181.123 98.2275 178.63 100.741 175.779 102.892C173.068 104.936 170.891 107.753 168.409 110.068C164.628 113.595 161.091 117.35 157.321 120.88C155.076 122.982 152.501 124.698 150.34 126.874C149.582 127.637 148.882 128.645 148.008 129.28C147.307 129.789 146.336 127.828 146.086 127.459C144.104 124.527 141.033 122.522 139.092 119.455C137.872 117.527 137.051 115.148 135.59 113.387C134.893 112.546 133.149 110.654 133.913 109.427C134.693 108.173 136.908 107.572 138.115 106.674C139.057 105.974 140.202 105.11 141.273 104.624C142.052 104.27 142.817 103.643 143.513 103.16C145.346 101.89 143.404 102.433 142.164 102.905" stroke="#00ADB5" stroke-opacity="0.5" stroke-linecap="round" stroke-linejoin="round"/>
<path d="M138.684 111.641C143.281 114.487 147.404 118.605 150.993 122.667C151.084 122.77 151.957 123.378 151.824 123.604C151.567 124.039 148.583 122.075 148.298 121.879" stroke="#00ADB5" stroke-opacity="0.5" stroke-linecap="round" stroke-linejoin="round"/>
<path d="M143.241 107.527C146.968 108.594 149.189 110.625 152.198 112.797C153.538 113.765 154.903 114.639 156.106 115.777C156.671 116.311 157.074 117.015 157.596 117.591C158.311 118.381 155.39 116.674 155.046 116.478" stroke="#00ADB5" stroke-opacity="0.5" stroke-linecap="round" stroke-linejoin="round"/>
<path d="M148.656 104.338C151.264 106.691 153.886 109.013 156.576 111.272C157.598 112.13 158.758 112.918 159.64 113.929C161.207 115.723 159.155 113.395 158.458 112.737" stroke="#00ADB5" stroke-opacity="0.5" stroke-linecap="round" stroke-linejoin="round"/>
<path d="M152.31 102.094C154.245 103.27 156.265 104.41 157.903 105.996C158.575 106.646 159.133 107.413 159.851 108.016C160.736 108.758 161.511 109.624 162.402 110.346C163.671 111.373 163.861 111.673 162.354 110.384" stroke="#00ADB5" stroke-opacity="0.5" stroke-linecap="round" stroke-linejoin="round"/>
<path d="M157.021 98.6401C159.156 100.31 161.131 102.006 162.915 104.044C163.706 104.946 164.343 105.988 165.346 106.68C166.265 107.315 166.909 107.498 165.833 106.467" stroke="#00ADB5" stroke-opacity="0.5" stroke-linecap="round" stroke-linejoin="round"/>
<path d="M161.556 95.1203C163.435 96.5323 165.288 97.8213 166.789 99.6399C167.476 100.472 168.019 101.429 168.786 102.197C170.345 103.757 169.273 102.971 168.146 101.912" stroke="#00ADB5" stroke-opacity="0.5" stroke-linecap="round" stroke-linejoin="round"/>
<path d="M165.739 91.468C168.377 93.9918 170.587 96.9479 173.23 99.4408C175.009 101.119 172.46 98.4296 172.043 97.9517" stroke="#00ADB5" stroke-opacity="0.5" stroke-linecap="round" stroke-linejoin="round"/>
<path d="M170.846 88.5646C173.067 87.658 175.37 86.5772 176.564 84.3616C176.893 83.7507 177.317 83.2188 177.452 82.5303C177.638 81.5847 177.602 81.9904 176.901 82.6023" stroke="#00ADB5" stroke-opacity="0.5" stroke-linecap="round" stroke-linejoin="round"/>
<path d="M174.421 91.6141C176.182 89.9804 178.15 88.1959 179.44 86.1221C180.084 85.0877 181.309 83.8252 179.596 85.3213" stroke="#00ADB5" stroke-opacity="0.5" stroke-linecap="round" stroke-linejoin="round"/>
<path d="M180.066 95.0383C181.67 93.2952 183.097 91.6739 184.574 89.8512C185.051 89.2623 186.504 88.4981 184.756 88.9654" stroke="#00ADB5" stroke-opacity="0.5" stroke-linecap="round" stroke-linejoin="round"/>
<path d="M178.789 94.1575C180.468 92.7187 182.367 91.0435 183.698 89.2267C184.053 88.7421 184.326 88.2022 184.651 87.6987C185.195 86.8552 185.23 87.14 184.404 87.2266" stroke="#00ADB5" stroke-opacity="0.5" stroke-linecap="round" stroke-linejoin="round"/>
<path d="M143.217 114.548C151.581 111.15 153.645 101.928 160.462 96.7124C161.291 96.078 161.965 95.3728 162.932 94.9336C163.579 94.6399 164.377 94.4994 164.966 94.1236C165.325 93.8944 168.306 91.6168 166.234 92.5577" stroke="#00ADB5" stroke-opacity="0.5" stroke-linecap="round" stroke-linejoin="round"/>
<path d="M139.322 112.082C140.26 110.94 141.094 109.963 142.285 109.138C142.48 109.002 142.781 108.98 142.942 108.799C143.26 108.44 143.742 107.917 143.865 107.455C144.348 105.635 146.708 105.971 147.961 105.059C149.153 104.191 150.301 103.312 151.517 102.454C152.856 101.509 153.475 100.681 154.55 99.4701C155.538 98.358 156.497 97.2331 157.543 96.1802C158.398 95.3189 159.742 94.5355 160.287 93.4331C160.901 92.1889 162.472 90.765 163.886 90.9956C164.371 91.0748 167.939 93.1421 165.607 91.8202" stroke="#00ADB5" stroke-opacity="0.5" stroke-linecap="round" stroke-linejoin="round"/>
<path d="M146.891 116.53C153.177 113.214 156.666 105.985 160.911 100.524C162.475 98.5129 164.71 97.1764 166.347 95.2C167.047 94.3546 168.593 93.4567 166.795 93.4712" stroke="#00ADB5" stroke-opacity="0.5" stroke-linecap="round" stroke-linejoin="round"/>
<path d="M149.135 118.577C154.831 115.076 158.478 108.561 162.622 103.398C164.507 101.05 166.327 98.6515 168.235 96.3219C169.106 95.2598 170.623 94.5962 168.676 95.6838" stroke="#00ADB5" stroke-opacity="0.5" stroke-linecap="round" stroke-linejoin="round"/>
<path d="M151.379 122.232C154.933 118.766 157.803 115.026 160.711 111.016C162.479 108.579 164.008 105.838 166.084 103.643C167.275 102.384 168.193 100.909 169.274 99.574C169.71 99.0362 170.011 98.4095 170.458 97.8761C171.467 96.6746 170.764 97.7616 170.062 98.4133" stroke="#00ADB5" stroke-opacity="0.5" stroke-linecap="round" stroke-linejoin="round"/>
<path d="M152.215 123.751C153.984 122.018 156.575 120.35 157.755 118.103C158.183 117.287 159.244 115.317 159.987 114.818C160.97 114.158 161.438 112.753 162.153 111.87C162.898 110.951 163.628 110.053 164.436 109.179C165.194 108.358 165.436 106.919 166.375 106.213C167.42 105.427 167.929 104.209 168.763 103.271C169.484 102.458 170.858 101.616 171.753 100.996C172.25 100.652 172.596 100.183 173.159 99.9274C174.299 99.4095 173.559 99.6746 172.515 99.6356" stroke="#00ADB5" stroke-opacity="0.5" stroke-linecap="round" stroke-linejoin="round"/>
<path d="M170.703 89.2138C172.166 89.5995 173.97 89.8644 175.304 90.6618C176.164 91.1764 176.913 91.693 175.346 90.7559" stroke="#00ADB5" stroke-opacity="0.5" stroke-linecap="round" stroke-linejoin="round"/>
<path d="M172.222 86.7714C174.309 87.3166 175.785 87.9279 177.487 89.0376C178.599 89.7631 178.421 89.5622 177.262 88.8639" stroke="#00ADB5" stroke-opacity="0.5" stroke-linecap="round" stroke-linejoin="round"/>
<path d="M174.754 84.3073C176.546 85.3153 178.285 86.4608 180.139 87.3384C181.229 87.8545 180.657 87.8184 179.815 87.4122" stroke="#00ADB5" stroke-opacity="0.5" stroke-linecap="round" stroke-linejoin="round"/>
<path d="M176.196 82.3379C178.081 83.1959 179.818 84.0505 181.553 85.1299C182.345 85.6221 181.626 85.6539 181.026 85.2556" stroke="#00ADB5" stroke-opacity="0.5" stroke-linecap="round" stroke-linejoin="round"/>
<path d="M171.627 88.3558C173.051 86.663 174.48 85.059 175.776 83.3239C176.144 82.8309 178.387 80.0862 177.418 81.491" stroke="#00ADB5" stroke-opacity="0.5" stroke-linecap="round" stroke-linejoin="round"/>
<path d="M173.123 91.3275C174.976 89.6897 177.646 87.506 178.244 85.0591C178.419 84.339 178.801 83.6193 179.36 83.124C179.928 82.6216 180.521 82.3947 179.673 83.2414" stroke="#00ADB5" stroke-opacity="0.5" stroke-linecap="round" stroke-linejoin="round"/>
<path d="M171.637 91.272C173.613 89.1444 175.301 87.7143 176.417 85.0934C176.707 84.4127 177.039 83.8485 177.515 83.3129C178.019 82.7452 178.743 82.2137 177.77 83.2298" stroke="#00ADB5" stroke-opacity="0.5" stroke-linecap="round" stroke-linejoin="round"/>
<path d="M178.977 92.3199C179.887 92.8966 180.799 93.431 181.744 93.9109C182.135 94.1092 181.652 93.7256 181.486 93.6633" stroke="#00ADB5" stroke-opacity="0.5" stroke-linecap="round" stroke-linejoin="round"/>
<path d="M180.75 89.4703C180.811 89.5226 184.387 92.5867 183.753 91.9033" stroke="#00ADB5" stroke-opacity="0.5" stroke-linecap="round" stroke-linejoin="round"/>
<path d="M182.874 88.3595C183.663 89.1185 186.079 91.3383 185.228 90.6492" stroke="#00ADB5" stroke-opacity="0.5" stroke-linecap="round" stroke-linejoin="round"/>
<path d="M177.92 93.53C179.228 92.3126 182.095 89.9007 182.797 88.0294C183.074 87.292 184.342 86.3445 183.15 87.3583" stroke="#00ADB5" stroke-opacity="0.5" stroke-linecap="round" stroke-linejoin="round"/>
<path d="M178.085 93.8931C178.209 93.9925 180.71 96.6856 181.243 95.3798C181.515 94.7132 181.87 93.8451 182.537 93.4777C183.709 92.8331 183.925 90.803 185.124 90.2585C186.484 89.6408 186.357 88.6048 185.09 88.2373C184.593 88.093 184.985 87.1122 184.468 87.1893C183.995 87.2598 183.745 87.0852 183.216 87.1821" stroke="#00ADB5" stroke-opacity="0.5" stroke-linecap="round" stroke-linejoin="round"/>
<path d="M170.538 88.8507C171.396 90.4894 171.558 91.0836 172.942 91.767C173.315 91.9515 173.803 91.6957 174.086 91.8395C174.647 92.1243 175.755 92.1302 176.174 91.6134C177.016 90.5743 177.325 89.9036 178.615 89.2715C179.429 88.8727 180.083 87.9319 180.46 87.1519C180.874 86.2947 181.619 85.6488 182.056 84.7884C182.242 84.422 180.74 83.4783 180.726 82.8444C180.723 82.6647 178.94 82.6593 178.643 82.5087C178.284 82.3262 178.119 82.069 177.946 81.6892C177.694 81.1345 177.248 81.8233 176.571 81.8759" stroke="#00ADB5" stroke-opacity="0.5" stroke-linecap="round" stroke-linejoin="round"/>
<path d="M140.841 109.639C142.867 110.409 144.633 111.402 146.457 112.5C148.04 113.454 149.829 113.962 151.402 114.887C152.522 115.545 153.685 117.048 154.511 118.035C154.787 118.363 154.992 118.671 155.188 119.042C155.636 119.892 155.17 117.836 155.122 117.611" stroke="#00ADB5" stroke-opacity="0.5" stroke-linecap="round" stroke-linejoin="round"/>
<path d="M160.401 94.1844C160.963 94.7742 163.237 98.0301 162.788 95.5828" stroke="#00ADB5" stroke-opacity="0.5" stroke-linecap="round" stroke-linejoin="round"/>
<path d="M165.082 320.191C165.323 321.43 165.936 322.236 166.411 323.364C166.735 324.132 167.339 324.727 167.676 325.48C168.04 326.294 168.584 327.25 169.091 327.975C169.526 328.596 169.811 329.184 170.359 329.733C171.329 330.702 172.062 331.857 173.036 332.813C174.452 334.202 176.849 336.014 178.912 335.9C179.574 335.863 180.308 336.068 180.958 335.97C181.515 335.886 182.193 335.858 182.751 335.954C183.669 336.112 184.665 335.953 185.543 336.143C186.017 336.246 186.533 336.096 187.013 336.185C187.635 336.3 188.364 336.329 188.998 336.329C191.074 336.329 193.144 336.316 195.213 336.053C196.335 335.911 197.446 336.283 198.556 336.085C199.598 335.9 200.986 336.092 201.966 335.663C203.171 335.136 204.369 334.307 205.3 333.377C205.766 332.91 206.121 332.352 206.436 331.776C206.851 331.018 207.082 330.2 207.5 329.445C208.954 326.808 209.783 323.874 210.961 321.126C211.239 320.478 211.695 319.953 212.027 319.355C212.111 319.204 212.149 319.01 212.287 318.865C212.8 318.321 211.816 318.264 211.364 318.058" stroke="#00ADB5" stroke-opacity="0.5" stroke-linecap="round" stroke-linejoin="round"/>
<path d="M164.852 320.306C165.882 318.958 166.756 317.968 168.252 317.206C169.506 316.568 170.805 315.81 171.938 314.978C173.678 313.698 176.073 313.128 178.191 312.743C180.497 312.324 182.767 311.833 185.114 311.833C185.84 311.833 186.559 312.052 187.285 312.064C188.155 312.078 189.026 312.106 189.892 312.179C191.22 312.292 192.583 312.266 193.913 312.294C195.769 312.335 197.546 313.296 199.402 313.444C200.505 313.532 201.793 313.697 202.866 313.998C203.268 314.111 203.727 314.187 204.102 314.369C204.569 314.596 204.896 314.98 205.325 315.247C206.71 316.108 208.258 316.514 209.754 317.168C210.212 317.369 211.001 317.712 211.508 317.712C212.207 317.712 212.171 319.003 212.171 317.712" stroke="#00ADB5" stroke-opacity="0.5" stroke-linecap="round" stroke-linejoin="round"/>
<path d="M212.056 318.519C211.201 319.665 210.592 320.101 209.379 320.77C208.427 321.296 207.372 321.667 206.305 321.862C205.309 322.044 204.221 322.188 203.212 322.269C202.372 322.336 201.515 322.238 200.657 322.336C198.716 322.557 196.758 323.057 194.887 323.604C192.215 324.385 189.635 324.466 186.875 324.616C183.863 324.779 180.842 324.549 177.89 323.937C176.895 323.731 175.842 323.916 174.829 323.876C173.713 323.832 172.62 323.525 171.569 323.162C171.127 323.009 170.72 322.775 170.257 322.669C169.714 322.545 169.162 322.594 168.624 322.464C167.873 322.283 166.997 321.955 166.363 321.516C166.087 321.325 165.673 321.168 165.457 320.879C165.394 320.795 165.313 320.608 165.313 320.508C165.313 320.269 165.117 320.329 165.428 320.537" stroke="#00ADB5" stroke-opacity="0.5" stroke-linecap="round" stroke-linejoin="round"/>
<path d="M187.272 330.219C187.974 330.141 188.901 330.155 188.611 329.252C188.518 328.963 188.283 328.932 188.034 328.849C187.293 328.602 185.966 329.08 185.687 329.854C185.187 331.243 186.134 332.744 187.621 332.262C188.026 332.131 188.744 331.845 189.001 331.478C189.31 331.037 188.847 331.167 188.54 330.738" stroke="#00ADB5" stroke-opacity="0.5" stroke-linecap="round" stroke-linejoin="round"/>
<path d="M185.14 328.721C186.258 328.272 186.83 328.087 187.961 328.087C188.417 328.087 188.645 328.055 189.046 328.317C189.71 328.751 189.938 329.576 189.869 330.303C189.811 330.916 189.608 331.757 189.392 332.339C189.232 332.772 188.835 332.847 188.428 332.928C188.057 333.003 187.247 332.795 186.955 332.957C186.645 333.129 185.697 333.187 185.457 332.867C185.236 332.573 185 332.446 184.839 332.089C184.686 331.749 184.616 331.423 184.493 331.084C184.324 330.618 184.019 329.347 184.65 329.067C185.02 328.902 185.178 328.804 185.601 328.804C185.721 328.804 185.824 328.894 185.947 328.894C186.124 328.894 185.605 328.779 185.428 328.779" stroke="#00ADB5" stroke-opacity="0.5" stroke-linecap="round" stroke-linejoin="round"/>
<path d="M187.157 324.11C187.97 323.059 188.712 321.975 189.552 320.953C190.004 320.404 190.564 319.932 191.051 319.406C192.444 317.902 193.863 316.255 194.925 314.497C195.971 312.766 197.399 310.88 198.95 309.579C199.769 308.892 200.501 308.133 201.214 307.341C201.905 306.573 202.224 305.498 202.879 304.686C203.386 304.058 206.707 299.78 207.285 302.381C207.512 303.403 206.515 304.118 205.889 304.744C205.178 305.455 204.464 306.357 203.859 307.165C203.275 307.943 202.565 308.628 201.998 309.413C201.227 310.481 199.823 311.245 199.261 312.455C198.797 313.453 198.026 314.255 197.448 315.18C196.647 316.461 195.709 317.532 194.765 318.705C194.017 319.635 192.846 320.399 192.316 321.459C191.873 322.344 191.088 322.717 190.372 323.29C190.06 323.54 189.681 323.678 189.405 324.023C189.313 324.138 189.148 324.271 189.062 324.142C189.013 324.068 188.826 324.233 188.861 324.315C188.983 324.602 188.685 323.625 188.656 323.534" stroke="#00ADB5" stroke-opacity="0.5" stroke-linecap="round" stroke-linejoin="round"/>
<path d="M186.696 324.398C186.917 324.51 188.31 325.568 188.31 324.715C188.31 324.457 188.641 324.027 188.758 323.764C188.846 323.565 188.051 323.756 187.932 323.908C187.777 324.107 187.477 324.269 187.964 324.283C188.338 324.294 188.631 324.133 188.915 323.911C188.997 323.848 190.096 324.022 189.117 323.995C188.596 323.98 188.089 323.995 187.589 323.995C187.157 323.995 188.033 323.879 188.159 323.879C188.26 323.879 187.429 324.374 187.285 324.212C187.25 324.173 187.19 324.065 187.33 323.995" stroke="#00ADB5" stroke-opacity="0.5" stroke-linecap="round" stroke-linejoin="round"/>
<path d="M168.368 320.133C168.432 320.167 170.492 321.246 170.5 321.113C170.51 320.952 170.395 320.811 170.474 320.652C170.823 319.955 171.274 320.289 171.874 320.559C172.342 320.77 171.632 318.438 173.042 319.422C173.772 319.931 173.966 319.85 173.846 318.996C173.755 318.35 173.979 318.348 174.535 318.417C174.913 318.463 175.183 318.546 175.399 318.186C175.661 317.75 175.956 317.502 176.491 317.69C176.935 317.846 177.329 318.285 177.634 317.725C177.769 317.479 177.655 316.742 178.079 316.883C178.345 316.972 178.695 317.319 178.998 317.21C179.228 317.127 179.404 316.415 179.664 316.528C179.936 316.645 180.212 317.16 180.554 317.037C180.72 316.977 181.026 316.437 180.702 316.502" stroke="#00ADB5" stroke-opacity="0.5" stroke-linecap="round" stroke-linejoin="round"/>
<path d="M176.494 319.096C177.209 319.677 179.884 322.782 180.67 320.463C180.811 320.048 180.833 319.225 181.227 319.906C181.552 320.467 182.041 320.856 182.572 320.325C182.924 319.973 183.08 319.376 183.584 319.192C184.046 319.023 184.385 319.891 184.768 319.384C185.078 318.975 184.928 318.272 184.474 318.026C184.325 317.946 184.283 318.223 184.218 318.289" stroke="#00ADB5" stroke-opacity="0.5" stroke-linecap="round" stroke-linejoin="round"/>
<path d="M182.661 315.522C183.774 315.331 185.177 314.942 186.023 315.938C186.416 316.4 186.379 316.99 186.12 317.514C185.93 317.896 185.42 318.087 185.095 317.712C184.828 317.405 185.378 316.898 185.575 316.71C186.25 316.067 187.25 317.097 187.461 317.796C187.638 318.379 186.042 319.732 186.235 319.153" stroke="#00ADB5" stroke-opacity="0.5" stroke-linecap="round" stroke-linejoin="round"/>
<path d="M201.393 317.482C201.724 317.368 203.851 316.683 203.442 317.815C203.233 318.395 202.431 318.707 201.905 318.897C201.657 318.987 201.014 318.972 201.432 318.609C201.793 318.295 202.302 318.148 202.776 318.186C204.626 318.337 202.039 320.461 201.508 320.754C200.476 321.324 199.073 321.923 197.993 321.228" stroke="#00ADB5" stroke-opacity="0.5" stroke-linecap="round" stroke-linejoin="round"/>
<path d="M190.039 314.081C190.477 314.795 191.006 315.512 191.38 316.262C191.509 316.52 190.951 315.859 190.82 315.602C190.785 315.534 190.545 314.777 190.522 314.782C190.242 314.845 190.176 316.13 190.1 316.367C189.741 317.49 188.853 317.06 187.983 316.976C186.93 316.874 186.458 317.914 185.876 318.577C185.41 319.108 185.227 319.271 185.543 319.903C185.799 320.414 185.905 320.91 185.543 321.372C185.261 321.733 184.907 321.961 184.567 322.259C184.255 322.532 184.702 322.487 184.643 322.323C184.483 321.876 183.497 321.969 183.174 321.99C181.974 322.07 180.752 321.769 179.575 321.843C178.949 321.882 178.36 322.231 177.74 322.323C177.11 322.417 177.943 322.963 178.178 323.121C178.584 323.391 177.384 322.545 176.942 322.336C176.203 321.986 175.519 321.715 175.137 320.94C174.753 320.163 174.415 319.634 173.766 319.064C173.542 318.867 173.516 318.568 173.625 318.302C173.878 317.684 174.439 317.182 174.996 316.848" stroke="#00ADB5" stroke-opacity="0.5" stroke-linecap="round" stroke-linejoin="round"/>
<path d="M189.924 316.387C188.479 315.378 187.287 314.944 185.588 314.715C184.991 314.635 184.354 314.221 183.965 313.764C183.619 313.359 183.815 313.466 183.407 314.017C182.851 314.77 182.438 314.094 181.726 314.293C180.636 314.597 179.701 315.61 178.595 315.798C178.292 315.849 178.365 315.342 177.986 315.561C177.349 315.928 176.861 316.276 176.116 316.393C175.666 316.464 174.812 316.761 174.88 317.309" stroke="#00ADB5" stroke-opacity="0.5" stroke-linecap="round" stroke-linejoin="round"/>
<path d="M199.722 316.387C201.116 316.521 202.528 316.504 203.916 316.652C204.405 316.705 204.655 316.902 204.999 317.222C205.309 317.511 205.793 318.191 206.238 318.228C206.879 318.281 207.211 318.015 207.81 317.828C208.171 317.715 209.321 317.828 208.944 317.828" stroke="#00ADB5" stroke-opacity="0.5" stroke-linecap="round" stroke-linejoin="round"/>
<path d="M198.685 317.943C197.186 318.93 196.385 320.428 194.781 321.327C194.464 321.505 193.491 321.85 193.565 322.435C193.617 322.859 196.864 321.533 197.359 321.286" stroke="#00ADB5" stroke-opacity="0.5" stroke-linecap="round" stroke-linejoin="round"/>
<path d="M204.275 319.326C205.09 319.933 205.793 320.8 206.811 320.492C207.087 320.408 207.663 320.376 207.849 320.191" stroke="#00ADB5" stroke-opacity="0.5" stroke-linecap="round" stroke-linejoin="round"/>
<path d="M405.697 294.2C401.488 295.008 398.428 296.223 395.761 299.653C394.07 301.826 394.441 305.248 395.549 307.552C397.374 311.349 401.861 313.493 405.909 313.679C410.625 313.896 417.182 312.51 418.148 306.886C418.667 303.87 415.786 301.02 414.437 298.547C413.34 296.535 411.688 293.824 409.378 292.973C408.435 292.625 406.247 292.746 405.561 293.685C405.255 294.104 404.86 294.547 404.637 295.018C404.456 295.399 404.65 294.047 404.607 293.654" stroke="#00ADB5" stroke-opacity="0.5" stroke-linecap="round" stroke-linejoin="round"/>
<path d="M407.469 304.56C406.334 305.144 404.491 305.531 405.485 306.81C405.712 307.101 406.035 307.085 406.311 306.81C406.546 306.574 407.734 305.338 406.856 305.045C405.067 304.449 405.721 308.018 407 306.439C407.687 305.59 406.725 304.755 405.864 305.272C404.837 305.888 405.649 306.964 406.455 306.03C407.061 305.326 406.577 304.787 405.917 305.447C405.326 306.038 405.926 306.981 406.508 306.181C407.104 305.361 406.424 304.667 405.705 305.386C404.872 306.218 405.773 306.131 406.364 305.583C406.959 305.03 405.903 305.112 405.561 305.545C404.765 306.551 406.012 306.408 406.212 305.545C406.507 304.277 405.199 307.19 405.834 304.969" stroke="#00ADB5" stroke-opacity="0.5" stroke-linecap="round" stroke-linejoin="round"/>
<path d="M402.834 300.334C404.045 301.932 405.286 303.447 406.303 305.045C406.585 305.488 406.36 305.932 406.515 305.924C407.089 305.892 407.676 305.787 408.287 305.787C409.686 305.787 410.787 305.106 412.135 305.106C413.767 305.106 416.165 304.682 413.468 303.334" stroke="#00ADB5" stroke-opacity="0.5" stroke-linecap="round" stroke-linejoin="round"/>
<path d="M401.471 294.063C401.216 292.775 399.972 289.65 402.289 289.981C403.12 290.1 403.678 290.96 404.167 291.504C405.44 292.917 405.304 294.624 403.243 294.745C402.704 294.777 401.944 295.847 401.335 295.086C400.645 294.224 401.349 294.282 401.471 293.246C401.551 292.567 401.108 292.624 400.918 291.958C400.772 291.447 401.075 290.888 401.198 290.519" stroke="#00ADB5" stroke-opacity="0.5" stroke-linecap="round" stroke-linejoin="round"/>
<path d="M402.289 292.564C402.277 292.889 401.775 295.824 402.842 295.343C403.199 295.183 403.508 294.949 403.652 294.578C403.792 294.22 403.644 294.005 403.486 293.654C403.079 292.751 401.9 291.347 402.259 293.382C402.485 294.666 403.92 294.366 404.031 293.139C404.116 292.203 402.935 290.948 402.183 292.019C401.651 292.776 402.599 294.445 403.153 293.276C403.434 292.682 402.761 291.173 402.047 291.913C401.314 292.671 402.415 294.272 403.137 293.624C403.852 292.984 403.366 291.031 402.592 291.776C401.884 292.458 402.946 293.815 403.486 292.776C404.087 291.617 402.762 290.744 402.35 291.958C401.982 293.042 403.129 294.207 403.395 292.73C403.597 291.606 401.532 291.009 401.532 292.352C401.532 293.589 402.638 293.463 402.638 292.337C402.638 291.163 401.456 291.427 401.948 292.412C402.441 293.398 403.101 291.649 402.547 291.095C401.899 290.447 401.042 291.448 401.804 292.072C402.324 292.497 403.034 290.733 402.16 290.405C401.406 290.122 401.823 291.663 402.085 291.314C402.49 290.774 401.869 290.412 402.297 290.519C402.674 290.613 403.59 290.815 403.849 291.148C404.053 291.41 404.879 292.867 404.879 293.245C404.879 294.403 403.108 295.028 402.092 294.737C401.363 294.529 401.147 295.044 401.403 294.874C402.023 294.46 402.153 293.382 402.153 293.791" stroke="#00ADB5" stroke-opacity="0.5" stroke-linecap="round" stroke-linejoin="round"/>
<path d="M402.153 313.558C401.451 315.047 400.828 316.543 400.002 317.951C399.816 318.268 399.467 318.914 399.426 319.284C399.316 320.278 400.315 316.912 400.517 316.421" stroke="#00ADB5" stroke-opacity="0.5" stroke-linecap="round" stroke-linejoin="round"/>
<path d="M415.922 310.695C417.648 312.875 419.552 314.43 420.898 316.822C421.03 317.058 421.26 317.245 421.443 317.428C422.055 318.041 420.306 316.121 419.739 315.467" stroke="#00ADB5" stroke-opacity="0.5" stroke-linecap="round" stroke-linejoin="round"/>
<path d="M301.569 183.588C302.648 187.662 306.817 202.809 307.814 208.342C310.559 223.58 306.251 202.788 306.241 209.518" stroke="#00ADB5" stroke-opacity="0.5" stroke-width="2" stroke-linecap="round" stroke-linejoin="round"/>
<path d="M294.252 190.175C293.884 183.975 292.493 175.37 301.187 176.256C305.277 176.672 309.782 179.1 312.332 182.348C316.273 187.367 314.194 195.147 309.936 199.142C307.67 201.268 305.472 202.333 302.506 203.136C297.483 204.498 301.447 197.521 302.256 195.608" stroke="#00ADB5" stroke-opacity="0.5" stroke-width="2" stroke-linecap="round" stroke-linejoin="round"/>
<path d="M316.864 197.752C325.503 197.29 333.454 195.589 336.544 204.957C338.34 210.402 340.527 217.016 339.03 222.754C337.677 227.938 334.763 231.179 329.436 228.971C321.824 225.815 321.834 219.873 325.977 213.948C327.503 211.767 333.345 207.398 333.35 204.848" stroke="#00ADB5" stroke-opacity="0.5" stroke-width="2" stroke-linecap="round" stroke-linejoin="round"/>
<path d="M332.434 187.643C332.139 189.916 332.134 205.994 327.783 206.148C326.967 206.177 326.282 206.601 325.569 206.956C322.83 208.321 324.496 207.093 325.519 205.673C327.835 202.457 332.527 203.645 334.877 199.377C337.428 194.743 338.603 192.463 334.946 188.877C332.382 186.365 333.508 182.09 331.49 188.113" stroke="#00ADB5" stroke-opacity="0.5" stroke-width="2" stroke-linecap="round" stroke-linejoin="round"/>
<path d="M345.183 173.052C348.521 180.568 351.572 190.356 356.928 196.899C358.343 198.627 359.138 197.123 359.116 195.776C359.089 194.074 358.609 192.358 358.116 190.747" stroke="#00ADB5" stroke-opacity="0.5" stroke-width="2" stroke-linecap="round" stroke-linejoin="round"/>
<path d="M335.49 192.597C340.787 190.513 353.793 188.403 356.009 181.789" stroke="#00ADB5" stroke-opacity="0.5" stroke-width="2" stroke-linecap="round" stroke-linejoin="round"/>
<path d="M351.781 173.298C374.74 213.457 352.371 185.231 364.041 177.887C371.125 173.428 371.716 194.44 373.678 185.351" stroke="#00ADB5" stroke-opacity="0.5" stroke-width="2" stroke-linecap="round" stroke-linejoin="round"/>
<path d="M372.286 171.916C373.118 174.407 375.916 190.848 381.74 187.092C384.345 185.413 387.378 182.211 387.88 179.063C388.419 175.686 386.309 167.106 381.535 168.03C379.356 168.451 375.712 168.553 374.291 170.624C372.917 172.625 372.049 177.312 373.699 172.39" stroke="#00ADB5" stroke-opacity="0.5" stroke-width="2" stroke-linecap="round" stroke-linejoin="round"/>
<path d="M388.552 167.936C395.063 163.756 402.715 162.383 403.707 172.228C403.831 173.463 403.854 175.019 404.42 176.157C405.077 177.476 403.728 172.933 402.45 172.2" stroke="#00ADB5" stroke-opacity="0.5" stroke-width="2" stroke-linecap="round" stroke-linejoin="round"/>
<path d="M388.075 171.706C388.37 176.852 387.634 183.823 390.038 188.65C390.121 188.815 390.692 190.074 390.404 189.384C389.834 188.019 389.598 187.091 388.524 185.61" stroke="#00ADB5" stroke-opacity="0.5" stroke-width="2" stroke-linecap="round" stroke-linejoin="round"/>
<path d="M223.289 218.291C222.388 226.655 223.96 252.407 209.754 250.804C206.792 250.47 204.102 249.975 202.695 247.185C201.222 244.263 200.003 241.721 199.856 238.402C199.676 234.325 201.299 232.401 204.595 230.561C205.751 229.916 203.267 232.528 203.047 232.781C201.599 234.445 206.514 232.416 208.393 232" stroke="#00ADB5" stroke-opacity="0.5" stroke-width="2" stroke-linecap="round" stroke-linejoin="round"/>
<path d="M241.528 222.31C234.342 222.982 224.2 224.345 223.041 233.333C222.412 238.209 229.661 238.802 232.808 240.462C238.214 243.316 242.316 252.621 236.252 256.716C232.035 259.564 228.845 258.051 224.743 258.335C220.576 258.623 223.477 257.088 225.948 256.667" stroke="#00ADB5" stroke-opacity="0.5" stroke-width="2" stroke-linecap="round" stroke-linejoin="round"/>
<path d="M280.464 1.00066C279.888 6.77132 279.537 12.6011 278.825 18.358C278.757 18.9119 278.212 21.0985 278.856 19.3307C279.328 18.0381 279.175 16.6911 279.933 15.4654C280.976 13.7771 285.688 7.34619 287.901 7.99669C292.337 9.30045 287.86 17.5283 286.59 19.886C286.152 20.6991 284.958 22.463 285.576 23.3748C286.4 24.5905 287.924 20.0979 287.989 19.9605" stroke="#00ADB5" stroke-opacity="0.5" stroke-width="2" stroke-linecap="round" stroke-linejoin="round"/>
<path d="M297.983 4.78986C297.457 7.36807 293.041 20.0937 297.296 22.2016C298.497 22.7965 301.153 21.6736 301.978 20.7056C302.838 19.6977 302.388 18.1542 302.295 16.9842" stroke="#00ADB5" stroke-opacity="0.5" stroke-width="2" stroke-linecap="round" stroke-linejoin="round"/>
<path d="M289.229 5.06795C293.897 6.45617 298.698 7.38046 303.336 8.81267C304.431 9.15077 304.841 9.30393 305.431 10.2806C306.348 11.7998 303.912 10.4121 303.492 9.95187" stroke="#00ADB5" stroke-opacity="0.5" stroke-width="2" stroke-linecap="round" stroke-linejoin="round"/>
<path d="M310.34 14.088C309.268 17.3228 308.261 20.5982 307.038 23.7813C306.795 24.4142 306.758 24.6457 306.627 24.1623C306.501 23.6966 306.378 23.4223 306.585 22.9305C307.684 20.3169 310.249 16.5607 312.668 15.101C315.28 13.5245 313.854 18.8196 313.504 19.8915C313.11 21.0953 312.048 24.3948 313.255 21.2022C313.973 19.3021 315.622 14.58 318.402 15.2673C320.085 15.6835 319.696 17.9594 319.399 19.1628C318.85 21.382 318.305 23.5864 317.754 25.8129C316.95 29.0667 317.384 27.3095 317.972 24.9319" stroke="#00ADB5" stroke-opacity="0.5" stroke-width="2" stroke-linecap="round" stroke-linejoin="round"/>
<path d="M331.09 7.0055C329.413 13.0372 327.356 19.0515 325.911 25.1459C325.742 25.8606 325.372 28.5071 326.51 28.8223C327.591 29.1218 331.862 26.5555 330.819 25.6658" stroke="#00ADB5" stroke-opacity="0.5" stroke-width="2" stroke-linecap="round" stroke-linejoin="round"/>
<path d="M40.7744 253.038C36.8088 260.572 32.8559 268.112 28.8795 275.64C27.7462 277.786 25.5092 284.35 25.2323 281.94C24.8567 278.671 26.8539 274.094 27.7014 271.032C28.8974 266.709 31.3328 258.072 37.4013 258.104C41.9821 258.128 47.1319 264.846 47.8423 269.036C48.3439 271.996 49.8024 268.654 51.782 267.761" stroke="#00ADB5" stroke-opacity="0.5" stroke-width="2" stroke-linecap="round" stroke-linejoin="round"/>
<path d="M53.0668 277.174C55.7316 283.371 59.66 293.849 67.7497 288.084C71.4667 285.436 69.6195 280.903 65.9501 279.463C56.9574 275.935 45.6261 285.787 43.3834 293.885C41.1412 301.981 49.9926 304.464 56.0815 305.264C59.4507 305.706 58.695 302.826 61.5941 301.823" stroke="#00ADB5" stroke-opacity="0.5" stroke-width="2" stroke-linecap="round" stroke-linejoin="round"/>
<path d="M75.4628 298.603C68.4771 295.685 59.2223 293.085 55.2855 302.012C53.388 306.315 61.8802 306.82 64.399 306.701C69.2098 306.475 79.9221 295.339 76.313 298.528C73.1459 301.326 69.9405 304.629 68.6382 308.762C67.7972 311.431 68.7632 317.328 71.8576 313.255" stroke="#00ADB5" stroke-opacity="0.5" stroke-width="2" stroke-linecap="round" stroke-linejoin="round"/>
<path d="M102.629 304.188C92.4895 305.16 80.4731 305.669 76.8759 317.061C75.1075 322.661 79.2563 326.555 84.2554 328.199C87.7487 329.347 91.3098 326.854 93.4292 324.324" stroke="#00ADB5" stroke-opacity="0.5" stroke-width="2" stroke-linecap="round" stroke-linejoin="round"/>
<path d="M111.837 305.733C111.281 306.409 86.3056 333.63 98.2108 333.841C101.507 333.899 104.89 331.981 107.16 329.825" stroke="#00ADB5" stroke-opacity="0.5" stroke-width="2" stroke-linecap="round" stroke-linejoin="round"/>
<path d="M90.6825 310.686C95.4778 313.993 100.206 317.494 105.466 320.05C106.832 320.714 109.108 321.031 110.049 322.408C110.577 323.181 109.746 321.344 109.654 321.077" stroke="#00ADB5" stroke-opacity="0.5" stroke-width="2" stroke-linecap="round" stroke-linejoin="round"/>
<path d="M37.1933 92.7373C41.2175 99.6195 53.9972 119.698 48.8091 113.644C45.4929 109.775 42.9739 104.64 40.8712 100.063C38.6648 95.26 36.593 86.6893 45.0011 87.1243C52.2177 87.4977 55.0986 94.8672 56.3681 100.908C56.9282 103.573 57.071 105.643 58.2664 108.067C59.4886 110.545 59.5564 100.997 60.021 98.5189" stroke="#00ADB5" stroke-opacity="0.5" stroke-width="2" stroke-linecap="round" stroke-linejoin="round"/>
<path d="M63.1931 78.7406C63.4176 79.7818 66.8962 103.581 71.9452 99.0036C74.071 97.0764 74.5382 92.3261 74.8112 89.7237C75.6643 81.5896 72.2282 80.585 66.5179 78.8637C63.7937 78.0425 63.2355 78.0796 62.4874 80.8839C60.9512 86.6426 63.3727 85.0246 66.4755 81.8223" stroke="#00ADB5" stroke-opacity="0.5" stroke-width="2" stroke-linecap="round" stroke-linejoin="round"/>
<path d="M85.1471 72.0271C82.3417 76.7546 78.7647 82.3158 80.7381 88.1066C81.5566 90.5085 83.4608 89.874 84.7945 88.5217C86.899 86.3878 87.9961 82.8804 87.8791 79.95C87.6547 74.3322 84.1357 69.525 80.4434 65.5335C79.9314 64.9801 75.2681 61.1358 76.1813 64.4365C77.8216 70.3651 82.3867 76.0676 85.5678 81.2204C90.8109 89.7129 92.4188 86.4149 94.7741 78.4431" stroke="#00ADB5" stroke-opacity="0.5" stroke-width="2" stroke-linecap="round" stroke-linejoin="round"/>
<path d="M95.2726 73.4969C97.0136 75.1203 110.752 84.9334 111.178 76.2292C111.217 75.4394 110.21 75.1929 109.878 74.52C109.023 72.7859 107.606 71.6421 106.835 70.7326" stroke="#00ADB5" stroke-opacity="0.5" stroke-width="2" stroke-linecap="round" stroke-linejoin="round"/>
<path d="M96.4184 79.3948C90.9788 72.2518 83.3802 64.8251 91.1696 57.7633C94.4517 54.7878 101.261 57.1406 101.083 62.1122C101 64.4277 100.511 70.1534 97.1861 70.758C95.4277 71.0777 94.6174 69.9262 96.2438 68.3176" stroke="#00ADB5" stroke-opacity="0.5" stroke-width="2" stroke-linecap="round" stroke-linejoin="round"/>
<path d="M108.836 49.7694C112.353 52.0072 137.413 66.8168 124.287 73.29C122.241 74.2989 120.441 71.9476 119.353 70.4349C116.902 67.0246 124.044 62.1867 124.342 58.5744" stroke="#00ADB5" stroke-opacity="0.5" stroke-width="2" stroke-linecap="round" stroke-linejoin="round"/>
<path d="M129.405 37.8636C127.358 39.5353 115.617 49.9185 124.85 51.9261C129.95 53.035 134.77 47.9531 138.646 45.4165C144.89 41.3301 146.208 49.1934 144.492 53.6315C143.441 56.3496 134.669 65.2443 137.07 58.173" stroke="#00ADB5" stroke-opacity="0.5" stroke-width="2" stroke-linecap="round" stroke-linejoin="round"/>
<path d="M198.703 424.33C190.892 428.261 180.656 435.429 189.101 444.94C193.152 449.503 200.629 447.633 205.963 447.107C207.462 446.959 211.597 448.4 210.472 447.399C208.037 445.235 206.285 445.375 205.554 441.72" stroke="#00ADB5" stroke-opacity="0.5" stroke-width="2" stroke-linecap="round" stroke-linejoin="round"/>
<path d="M221.889 421.696C221.889 427.454 221.836 431.576 227.744 433.816C230.296 434.783 231.898 435.67 232.575 438.529C233.34 441.761 231.086 446.441 228.418 448.248C225.119 450.483 220.975 451.262 217.264 449.741C214.085 448.439 217.599 446.899 219.254 445.409" stroke="#00ADB5" stroke-opacity="0.5" stroke-width="2" stroke-linecap="round" stroke-linejoin="round"/>
<path d="M247.71 415.372C246.673 419.388 242.001 430.127 246.158 434.284C247.836 435.962 251.086 435.03 253.155 435.514C255.214 435.995 256.98 437.571 258.249 439.202C260.257 441.785 258.345 445.7 256.024 447.516C252.422 450.335 247.277 449.097 243.084 449.097C240.795 449.097 242.359 448.935 243.494 447.516" stroke="#00ADB5" stroke-opacity="0.5" stroke-width="2" stroke-linecap="round" stroke-linejoin="round"/>
<path d="M238.625 365.398C242.685 363.848 250.215 361.383 254.141 358.606C258.286 355.674 253.946 354.831 251.741 355.532C248.004 356.719 245.747 360.633 244.48 364.08C241.146 373.157 251.753 383.418 260.67 382.377C268.91 381.416 270.059 377.381 271.296 371.194" stroke="#00ADB5" stroke-opacity="0.5" stroke-width="2" stroke-linecap="round" stroke-linejoin="round"/>
<path d="M276.566 360.655C275.643 362.158 266.873 380.215 264.446 371.721" stroke="#00ADB5" stroke-opacity="0.5" stroke-width="2" stroke-linecap="round" stroke-linejoin="round"/>
<path d="M260.231 361.182C263.93 366.128 272.87 383.812 281.836 383.314C283.136 383.242 281.411 378.236 281.309 377.518" stroke="#00ADB5" stroke-opacity="0.5" stroke-width="2" stroke-linecap="round" stroke-linejoin="round"/>
<path d="M284.47 361.182C286.514 373.156 290.609 409.346 288.276 397.425C287.074 391.278 276.091 358.015 285.759 359.396C289.951 359.995 300.654 366.112 297.849 371.721C296.272 374.875 286.499 375.976 290.794 373.829" stroke="#00ADB5" stroke-opacity="0.5" stroke-width="2" stroke-linecap="round" stroke-linejoin="round"/>
<path d="M304.495 369.613C305.797 376.388 307.05 383.158 308.184 389.96C308.378 391.124 308.117 390.164 307.774 389.521C305.618 385.479 302.667 378.276 302.768 373.741C302.863 369.445 308.774 366.515 311.872 369.613" stroke="#00ADB5" stroke-opacity="0.5" stroke-width="2" stroke-linecap="round" stroke-linejoin="round"/>
<path d="M321.358 377.518C321.221 382.477 324.819 399.838 333.361 394.79C334.584 394.067 337.604 392.3 337.693 390.692C337.741 389.834 336.181 389.638 335.585 389.638C334.02 389.638 333.628 387.696 332.951 386.476" stroke="#00ADB5" stroke-opacity="0.5" stroke-width="2" stroke-linecap="round" stroke-linejoin="round"/>
<path d="M318.723 379.099C323.338 374.324 328.529 367.745 332.628 376.259C333.828 378.751 333.411 381.754 332.424 384.251C330.829 388.284 325.119 389.875 326.627 383.841" stroke="#00ADB5" stroke-opacity="0.5" stroke-width="2" stroke-linecap="round" stroke-linejoin="round"/>
<path d="M347.178 369.613C350.79 375.384 365.397 390.942 355.814 398.04C352.749 400.31 350.748 400.3 347.295 400.177C342.422 400.003 344.997 398.767 346.651 394.907" stroke="#00ADB5" stroke-opacity="0.5" stroke-width="2" stroke-linecap="round" stroke-linejoin="round"/>
<path d="M369.31 367.506C368.22 368.825 354.129 382.448 362.694 383.9C365.851 384.435 368.753 382.523 371.652 384.456C376.884 387.944 375.645 392.671 370.833 395.639C368.428 397.122 365.744 397.9 363.221 399.123C361.795 399.814 363.315 397.812 363.514 397.015" stroke="#00ADB5" stroke-opacity="0.5" stroke-width="2" stroke-linecap="round" stroke-linejoin="round"/>
<path d="M357.19 361.709C355.967 362.608 342.792 369.919 344.661 374.356C347.018 379.954 347.797 373.063 348.232 370.667" stroke="#00ADB5" stroke-opacity="0.5" stroke-width="2" stroke-linecap="round" stroke-linejoin="round"/>
<path d="M33.3138 189.334C35.6607 183.8 34.6995 178.977 34.6995 173.242C34.6995 172.127 34.4971 168.728 35.6695 168.12C37.5185 167.161 39.2463 166.521 41.4279 166.521C42.8782 166.521 44.3354 166.563 45.7851 166.521C47.2351 166.479 48.6396 165.889 50.0731 165.714C52.7405 165.387 55.5148 165.842 58.1487 165.842C60.2401 165.842 62.4036 166.113 64.4152 166.113C64.7723 166.113 66.2284 166.284 66.463 166.491C67.181 167.124 66.9754 168.139 67.5407 168.693" stroke="#00ADB5" stroke-opacity="0.5" stroke-linecap="round" stroke-linejoin="round"/>
<path d="M67.4028 169.184C67.4941 170.817 67.5283 173.109 68.2002 174.704C68.6356 175.738 68.2884 177.115 68.3765 178.216C68.5457 180.33 68.2309 182.391 68.2309 184.442C68.2309 187.193 68.3689 189.91 68.3689 192.646C68.3689 194.995 66.074 194.601 64.2592 194.271C62.6914 193.986 60.5875 194.558 58.9534 194.578C55.801 194.617 52.6339 194.854 49.4766 194.854C46.8397 194.854 44.8815 194.088 42.4533 193.167C41.1566 192.675 40.3728 192.784 38.98 192.784C37.6608 192.784 36.576 192.578 35.2537 192.991C34.48 193.233 33.0945 193.024 32.6544 192.232C32.1268 191.282 33.1758 190.87 33.1758 190.093C33.1758 189.44 33.0938 187.573 33.3138 189.334" stroke="#00ADB5" stroke-opacity="0.5" stroke-linecap="round" stroke-linejoin="round"/>
<path d="M49.0473 172.772C49.0473 172.772 49.5993 173.048 50.1514 173.6C50.7034 174.014 51.8655 173.807 52.8426 173.807C53.3567 173.807 53.8997 173.406 54.3607 173.202C55.2946 172.787 54.7376 173.567 54.5141 174.014C54.2666 174.509 54.5492 175.429 54.9971 175.739C55.7361 176.251 56.4672 175.809 57.19 175.448C57.49 175.298 57.4076 175.228 57.5005 175.433C57.6264 175.71 57.604 176.112 57.604 176.414C57.604 177.102 57.5588 178.245 57.19 178.845C56.7047 179.633 56.2144 180.144 55.4342 180.723C54.6633 181.296 53.6449 182.295 52.6202 182.295C50.618 182.295 48.4927 181.859 47.4908 179.911C47.0661 179.085 46.287 178.409 46.287 177.465C46.287 176.677 46.0264 175.733 46.287 174.98C46.6029 174.068 47.3911 173.202 47.1151 173.202C47.2558 173.242 48.4952 172.496 49.0473 172.772Z" stroke="#00ADB5" stroke-opacity="0.5" stroke-linecap="round" stroke-linejoin="round"/>
<path d="M51.3245 172.289C52.1009 172.002 53.8743 171.4 54.2918 170.46C54.6143 169.735 53.5481 169.598 52.9806 169.598C52.2924 169.598 51.4769 170.549 51.2938 171.151C51.192 171.485 51.0953 171.827 50.9948 172.166C50.9464 172.33 51.011 172.448 51.0446 172.6C51.0702 172.715 52.1231 172.162 52.0836 172.004" stroke="#00ADB5" stroke-opacity="0.5" stroke-linecap="round" stroke-linejoin="round"/>
<path d="M65.2697 187.812L34.7132 188.483C31.4808 188.554 28.8974 191.195 28.8974 194.428C28.8974 197.712 31.5597 200.375 34.8438 200.375H65.4015C68.7172 200.375 71.4051 197.687 71.4051 194.371V193.814C71.4051 190.447 68.6362 187.738 65.2697 187.812Z" stroke="#00ADB5" stroke-opacity="0.5"/>
<path d="M41.4064 188.317C41.8647 189.027 42.2605 189.88 42.7864 190.538C43.051 190.868 43.0085 190.801 43.5213 190.611C44.3774 190.294 45.3474 190.521 46.2405 190.521C47.0246 190.521 47.9363 190.112 48.6984 190.317C49.5813 190.555 50.6221 190.101 51.4911 190.08C52.5382 190.055 53.5364 190.154 54.5778 190.154C55.2056 190.154 55.8177 189.786 56.3988 189.786C56.7359 189.786 57.6969 190.054 57.7216 189.435C57.7337 189.134 57.8686 188.842 57.8686 188.537C57.8686 188.125 57.6221 188.304 57.2072 188.096" stroke="#00ADB5" stroke-opacity="0.5" stroke-linecap="round" stroke-linejoin="round"/>
<path d="M190.917 37.4554C191.484 36.7349 192.569 35.4017 191.048 35.166C190.704 35.1127 190.382 34.9104 190.044 35.0635C189.004 35.5349 188.038 36.5728 188.038 37.8069C188.038 39.7779 190.199 40.2047 191.77 40.1792C194.419 40.1362 195.225 37.5548 196.161 35.4638C197.106 33.3516 198.156 31.2736 199.137 29.1765C200.247 26.8036 202.067 24.9133 203.218 22.5622C203.712 21.554 204.357 20.6661 204.992 19.7456C205.978 18.3176 206.681 16.877 207.387 15.2937C207.965 13.9947 208.607 12.8085 209.316 11.5789C209.602 11.0817 209.495 10.32 210.043 10.8516C210.459 11.2552 211.121 11.5203 211.681 11.6229C214.129 12.0712 216.381 12.5458 218.903 12.3453C221.453 12.1425 224.002 11.7771 226.512 11.2909C227.366 11.1256 227.002 11.3246 226.6 11.8425C225.917 12.721 225.334 13.6519 224.68 14.542C223.827 15.7027 223.527 17.1006 223.023 18.4276C222.468 19.8863 221.808 21.2796 221.278 22.7623C220.253 25.6277 218.759 28.2409 216.911 30.6458C215.839 32.0396 214.516 34.4738 212.51 34.3752C209.405 34.2227 211.501 28.1114 212.985 26.9164C213.783 26.2731 214.656 26.9656 214.754 27.8292C214.888 29.0158 214.481 30.6418 213.329 31.2218C212.114 31.8338 211.182 31.7603 212.117 30.1821C212.683 29.2271 213.019 30.2781 213.251 29.8111" stroke="#00ADB5" stroke-opacity="0.5" stroke-width="2" stroke-linecap="round" stroke-linejoin="round"/>
<path d="M424.885 250.345C425.452 249.625 426.537 248.291 425.016 248.056C424.672 248.002 424.35 247.8 424.013 247.953C422.972 248.425 422.006 249.463 422.006 250.697C422.006 252.668 424.168 253.095 425.738 253.069C428.388 253.026 429.194 250.445 430.129 248.354C431.075 246.241 432.125 244.163 433.105 242.066C434.215 239.693 436.035 237.803 437.186 235.452C437.68 234.444 438.325 233.556 438.96 232.635C439.946 231.207 440.649 229.767 441.355 228.183C441.933 226.884 442.575 225.698 443.284 224.469C443.57 223.971 443.463 223.21 444.011 223.741C444.427 224.145 445.089 224.41 445.649 224.513C448.098 224.961 450.349 225.436 452.871 225.235C455.421 225.032 457.97 224.667 460.481 224.181C461.334 224.015 460.97 224.214 460.568 224.732C459.885 225.611 459.302 226.542 458.648 227.432C457.796 228.592 457.495 229.99 456.991 231.317C456.436 232.776 455.776 234.169 455.246 235.652C454.222 238.517 452.728 241.131 450.879 243.536C449.807 244.929 448.484 247.364 446.478 247.265C443.373 247.112 445.47 241.001 446.953 239.806C447.751 239.163 448.625 239.855 448.722 240.719C448.856 241.906 448.449 243.532 447.297 244.112C446.082 244.724 445.15 244.65 446.085 243.072C446.651 242.117 446.988 243.168 447.219 242.701" stroke="#00ADB5" stroke-opacity="0.5" stroke-width="2" stroke-linecap="round" stroke-linejoin="round"/>
<path d="M399.868 126.167C397.271 121.459 397.424 120.114 398.016 115.375C398.342 112.766 398.467 110.216 399.127 107.649C400.308 103.058 400.691 96.8761 396.994 93.1797C389.721 85.9063 376.176 96.2503 380.278 105.478C381.838 108.99 384.536 111.59 386.484 114.903C387.266 116.231 387.703 117.671 388.719 118.913C389.693 120.103 390.903 121.585 390.903 123.063C390.903 124.312 390.531 125.931 391.414 127.035C392.634 128.56 392.2 127.776 394.006 127.776C395.248 127.776 397.079 126.789 398.08 125.988C398.795 125.416 399.178 127.07 399.178 125.477C399.178 124.109 398.738 125.247 399.638 125.247" stroke="#00ADB5" stroke-opacity="0.5" stroke-linecap="round" stroke-linejoin="round"/>
<path d="M394.121 130.534C396.579 129.801 403.384 128.165 401.809 130.189C399.909 132.633 399.096 131.408 396.764 131.926C395.572 132.191 394.409 135.871 395.73 135.949C397.616 136.06 398.866 133.523 400.787 133.523C402.535 133.523 402.41 135.823 401.362 136.639C399.977 137.715 398.386 136.558 397.454 138.235C395.982 140.885 400.003 140.454 401.145 139.831C402.295 139.204 403.389 138.225 404.235 137.66" stroke="#00ADB5" stroke-opacity="0.5" stroke-linecap="round" stroke-linejoin="round"/>
<path d="M399.868 125.42C399.837 125.62 399.804 126.971 399.265 126.971C398.974 126.971 398.84 126.795 398.575 126.942C398.263 127.116 397.97 127.524 397.671 127.763C397.408 127.973 396.627 127.947 396.477 128.21C396.232 128.639 395.735 128.874 395.27 128.925C394.668 128.992 394.446 129.294 393.805 129.152C393.609 129.108 393.589 128.983 393.406 128.983C393.123 128.983 393 129.118 392.787 128.88C392.55 128.617 392.163 128.494 392.049 128.095C391.894 127.552 391.325 127.267 392.167 127.603" stroke="#00ADB5" stroke-opacity="0.5" stroke-linecap="round" stroke-linejoin="round"/>
<path d="M388.777 102.662C389.805 102.668 390.655 102.734 391.005 103.824C391.243 104.566 391.248 105.295 391.248 106.065C391.248 106.814 390.788 107.417 390.788 108.122C390.788 109.053 391.533 108.901 392.164 109.185C392.76 109.453 393.192 109.677 393.514 110.277C393.834 110.871 393.593 112.019 393.55 112.665C393.513 113.22 393.248 114.401 393.633 114.871C393.841 115.126 394.983 115.52 394.236 114.96" stroke="#00ADB5" stroke-opacity="0.5" stroke-linecap="round" stroke-linejoin="round"/>
<path d="M380.099 113.064C379.275 113.611 378.436 114.069 377.516 114.414C377.13 114.559 376.622 114.817 376.708 114.213" stroke="#00ADB5" stroke-opacity="0.5" stroke-linecap="round" stroke-linejoin="round"/>
<path d="M377.111 105.133C375.651 105.484 374.202 105.88 372.756 106.27C372.515 106.335 373.067 105.726 373.088 105.708" stroke="#00ADB5" stroke-opacity="0.5" stroke-linecap="round" stroke-linejoin="round"/>
<path d="M376.708 97.6047C375.197 97.3851 373.691 97.1126 372.187 96.8449C371.495 96.7216 371.202 96.8124 371.593 96.2255" stroke="#00ADB5" stroke-opacity="0.5" stroke-linecap="round" stroke-linejoin="round"/>
<path d="M384.868 89.6166C383.675 89.4068 382.64 89.2047 381.561 88.6652C381.056 88.4127 380.57 88.1092 380.041 87.9053C379.413 87.6631 379.4 87.7369 380.099 87.3179" stroke="#00ADB5" stroke-opacity="0.5" stroke-linecap="round" stroke-linejoin="round"/>
<path d="M395.271 84.4445C395.445 85.6642 395.387 86.3947 394.894 87.4999C394.628 88.0957 394.403 88.8487 394.271 89.4921C394.226 89.7137 394.201 89.8398 394.051 90.0061C393.995 90.0684 394.201 89.3282 394.236 89.2144" stroke="#00ADB5" stroke-opacity="0.5" stroke-linecap="round" stroke-linejoin="round"/>
<path d="M404.063 89.3293C403.682 90.5995 403.138 91.8179 402.812 93.0903C402.646 93.734 402.75 93.7731 403.029 93.1222" stroke="#00ADB5" stroke-opacity="0.5" stroke-linecap="round" stroke-linejoin="round"/>
<path d="M407.741 98.4668C406.436 99.5968 405.365 101 404.351 102.387C404.223 102.561 404.077 102.623 403.936 102.764C403.615 103.084 404.168 102.361 404.236 102.26" stroke="#00ADB5" stroke-opacity="0.5" stroke-linecap="round" stroke-linejoin="round"/>
<path d="M115.126 213.744C117.036 222.351 119.188 230.977 120.452 239.715C121.158 244.595 119.608 237.552 119.415 236.557C118.998 234.401 118.519 232.492 118.519 230.288C118.519 225.852 118.401 221.366 118.072 216.925C117.841 213.817 114.023 204.56 118.849 212.283C123.771 220.157 127.245 228.863 130.586 237.452C131.046 238.636 131.684 239.758 132.188 240.893C132.464 241.513 127.298 236.464 125.307 235.378" stroke="#00ADB5" stroke-opacity="0.5" stroke-width="2" stroke-linecap="round" stroke-linejoin="round"/>
<path d="M112.156 232.833C117.671 230.632 129.832 226.481 133.366 220.295C134.847 217.704 134.559 218.902 130.397 219.683" stroke="#00ADB5" stroke-opacity="0.5" stroke-width="2" stroke-linecap="round" stroke-linejoin="round"/>
<path d="M128.7 203.987C132.956 212.412 136.039 221.383 137.208 230.735C137.316 231.602 137.518 232.553 138.127 233.163C138.24 233.276 136.086 229.243 135.488 228.167" stroke="#00ADB5" stroke-opacity="0.5" stroke-width="2" stroke-linecap="round" stroke-linejoin="round"/>
<path d="M128.7 203.563C132.001 205.54 144.122 212.841 136.218 217.491C135.524 217.899 134.711 218.276 134.215 218.928C133.165 220.311 133.038 220.716 133.791 218.834" stroke="#00ADB5" stroke-opacity="0.5" stroke-width="2" stroke-linecap="round" stroke-linejoin="round"/>
<path d="M139.73 199.321C141.135 208.845 143.547 219.31 143.547 229.015C143.547 231.157 143.189 227.19 142.699 226.046" stroke="#00ADB5" stroke-opacity="0.5" stroke-width="2" stroke-linecap="round" stroke-linejoin="round"/>
<path d="M149.486 216.289C151.815 223.232 153.013 227.323 146.187 229.345C143.854 230.036 146.673 226.648 147.271 226.234C149.313 224.82 151.346 220.27 149.062 217.986C148.153 217.077 145.978 218.225 145.338 217.137C144.396 215.534 146.509 212.499 147.789 211.717C151.473 209.466 151.009 212.638 149.486 211.623" stroke="#00ADB5" stroke-opacity="0.5" stroke-width="2" stroke-linecap="round" stroke-linejoin="round"/>
<path d="M276.914 87.464C278.32 94.8627 284.109 116.467 280.741 109.731C280.378 109.005 280.076 108.39 280.045 107.566C279.932 104.519 279.705 101.334 278.654 98.4428C277.774 96.0241 277.958 93.5168 277.958 90.9432C277.958 90.4276 277.082 86.3708 277.165 86.343C278.051 86.0478 281.704 90.4872 282.365 91.2525C285.705 95.1229 289.081 99.5707 291.469 104.106C292.697 106.44 293.067 107.277 290.135 107.643" stroke="#00ADB5" stroke-opacity="0.5" stroke-width="2" stroke-linecap="round" stroke-linejoin="round"/>
<path d="M276.566 102.425C279.831 100.768 282.941 99.4442 286.308 98.2495" stroke="#00ADB5" stroke-opacity="0.5" stroke-width="2" stroke-linecap="round" stroke-linejoin="round"/>
<path d="M285.96 87.812C289.303 92.8197 292.487 98.1485 296.378 102.772C296.933 103.432 298.099 104.63 298.099 103.082C298.099 100.969 296.929 98.786 296.398 96.7805C295.549 93.5726 294.758 90.35 294.04 87.1162C293.346 83.9944 293.835 85.16 295.006 87.5027C296.947 91.3849 298.991 94.9211 301.694 98.3655C303.515 100.686 303.704 99.3938 303.704 97.3604C303.704 93.6668 301.901 90.6294 300.573 87.3094C299.154 83.7631 299.249 78.9219 297.635 75.6928C297.007 74.4371 296.92 78.4167 296.746 79.8099" stroke="#00ADB5" stroke-opacity="0.5" stroke-width="2" stroke-linecap="round" stroke-linejoin="round"/>
<path d="M304.748 75.2869C304.836 75.6956 306.132 85.8248 308.42 84.6807C309.423 84.1794 309.669 82.6455 310.701 82.1293C312.374 81.293 314.182 82.7741 314.837 84.2168C316.571 88.0314 314.575 92.4495 311.435 94.7703C307.086 97.9854 308.575 92.1975 308.575 90.5953" stroke="#00ADB5" stroke-opacity="0.5" stroke-width="2" stroke-linecap="round" stroke-linejoin="round"/>
<path d="M306.835 74.5911C306.209 76.302 305.071 84.2456 304.728 81.1629C304.517 79.26 304.892 77.8131 305.096 75.9828C305.578 71.6411 308.9 75.1337 307.531 72.8515" stroke="#00ADB5" stroke-opacity="0.5" stroke-width="2" stroke-linecap="round" stroke-linejoin="round"/>
<path d="M283.633 303.116C283.517 302.903 278.497 294.259 278.932 294.011C279.534 293.667 280.658 294.002 281.367 293.736C283.462 292.95 285.148 291.329 286.872 289.988C288.685 288.578 291.169 299.643 291.721 301.973C292.389 304.792 294.128 308.54 290.874 310.167C287.941 311.634 284.082 311.191 280.88 311.12C275.656 311.004 272.046 302.429 271.436 298.161C270.992 295.054 266.689 285.08 271.309 283.085C272.546 282.551 274.647 282.916 275.989 282.916C277.908 282.916 279.584 281.772 281.536 281.772C284.643 281.772 285.582 285.652 282.87 281.391" stroke="#00ADB5" stroke-opacity="0.5" stroke-width="2" stroke-linecap="round" stroke-linejoin="round"/>
<path d="M292.399 284.44C292.94 286.413 294.682 297.367 299.259 294.562C300.13 294.028 300.764 292.733 301.08 291.809C301.923 289.342 302.101 287.282 300.212 285.393C298.797 283.978 296.064 281.089 294.008 281.01C288.909 280.814 293.407 286.525 292.78 285.584" stroke="#00ADB5" stroke-opacity="0.5" stroke-width="2" stroke-linecap="round" stroke-linejoin="round"/>
<path d="M293.161 266.908C296.926 272.86 302.606 279.406 304.892 286.261C305.183 287.136 305.193 287.73 305.739 288.548C306.561 289.782 306.95 291.573 307.729 289.692C308.857 286.966 311.426 284.548 313.446 282.45C315.938 279.862 316.279 280.629 311.837 280.629" stroke="#00ADB5" stroke-opacity="0.5" stroke-width="2" stroke-linecap="round" stroke-linejoin="round"/>
<path d="M319.46 265.002C318.987 266.07 311.807 280.28 318.74 277.05C320.119 276.408 321.526 275.408 321.344 273.768C321.169 272.187 319.848 270.945 319.163 269.576C318.776 268.802 317.23 265.074 317.766 266.146C319.357 269.329 321.495 274.999 323.864 277.368C326.623 280.127 328.276 277.227 325.558 275.674" stroke="#00ADB5" stroke-opacity="0.5" stroke-width="2" stroke-linecap="round" stroke-linejoin="round"/>
<path d="M323.652 266.527C334.261 283.355 320.837 264.473 323.928 261.17C326.918 257.973 330.452 264.112 331.572 266.061C333.522 269.456 335.442 278.264 332.418 269.195" stroke="#00ADB5" stroke-opacity="0.5" stroke-width="2" stroke-linecap="round" stroke-linejoin="round"/>
<path d="M336.992 252.043C336.812 252.679 331.122 268.692 335.383 267.204C337.194 266.572 339.012 265.141 339.978 263.499C341.092 261.604 341.612 259.005 340.804 256.913C340.253 255.488 339.657 253.965 338.898 252.636C337.094 249.48 341.955 259.234 343.408 262.567C345.535 267.447 350.661 284.556 338.58 281.158C333.311 279.676 338.273 271.482 337.754 271.482" stroke="#00ADB5" stroke-opacity="0.5" stroke-width="2" stroke-linecap="round" stroke-linejoin="round"/>
<path d="M186.984 173.296C188.878 172.775 190.493 172.25 191.824 170.752C192.349 170.161 192.421 169.407 192.689 168.691C193.038 167.762 192.604 166.573 192.306 165.68C192.068 164.967 193.369 164.566 193.833 164.536C194.631 164.485 195.241 164.992 196.008 165.038C196.929 165.092 197.912 165.387 198.551 166.106C198.984 166.594 199.565 166.709 200.044 167.132C200.5 167.533 200.859 168.234 201.188 168.748C202.14 170.236 202.41 171.972 202.687 173.674C202.82 174.49 202.9 175.378 202.762 176.203C202.598 177.187 202.773 178.133 202.384 179.077C202.116 179.729 201.686 180.592 201.075 180.977C200.448 181.372 199.864 181.514 199.704 182.333C199.369 184.045 200.229 185.721 199.898 187.448C199.604 188.981 197.577 189.216 196.324 189.462C195.459 189.631 193.887 189.896 193.053 189.443C191.501 188.599 190.376 187.544 189.224 186.2C188.204 185.01 187.818 183.269 187.683 181.747C187.546 180.194 187.544 178.507 187.579 176.935C187.603 175.893 187.906 174.846 188.005 173.806C188.086 172.955 188.355 172.887 187.92 173.976" stroke="#00ADB5" stroke-opacity="0.5" stroke-linecap="round" stroke-linejoin="round"/>
<path d="M197.96 165.553C198.6 163.903 199.304 162.254 199.794 160.552C200.014 159.787 200.067 158.977 200.342 158.231C200.662 157.363 200.82 156.382 200.957 155.475C201.055 154.824 201.103 153.672 201.699 153.263C202.134 152.964 202.382 152.28 202.848 151.92C203.446 151.459 204.296 151.029 204.719 150.412C205.136 149.807 205.58 148.555 205.23 147.855C205.035 147.466 205.062 147.047 204.871 146.664C204.621 146.165 204.398 145.761 204.209 145.222C204.044 144.75 203.525 143.808 204.129 143.473C205.605 142.653 205.707 143.944 206.166 145.123C206.403 145.732 206.438 146.475 206.657 147.108C206.807 147.541 207.073 147.228 207.277 147.477C207.583 147.851 207.598 148.32 207.83 148.725C208.176 149.331 207.769 150.561 207.593 151.154C207.268 152.253 206.933 153.247 206.449 154.303C205.206 157.02 203.179 159.308 201.789 161.941C201.26 162.944 200.836 163.953 200.579 165.061C200.432 165.691 200.002 166.291 200.002 166.957C200.002 167.564 199.852 167.875 200.172 166.914" stroke="#00ADB5" stroke-opacity="0.5" stroke-linecap="round" stroke-linejoin="round"/>
<path d="M204.596 145.047C203.513 145.213 202.331 145.277 201.363 145.761C201.23 145.827 201.437 145.654 201.533 145.643C202.831 145.49 204.247 144.333 205.428 143.771C206.307 143.353 207.509 142.41 208.51 142.41C208.801 142.41 207.546 143.218 207.404 143.345" stroke="#00ADB5" stroke-opacity="0.5" stroke-linecap="round" stroke-linejoin="round"/>
<path d="M203.49 146.919C204.696 146.218 206.796 145.458 207.678 144.281C207.764 144.167 207.827 144.013 207.953 143.941C208.391 143.691 207.616 143.97 207.489 144.026" stroke="#00ADB5" stroke-opacity="0.5" stroke-linecap="round" stroke-linejoin="round"/>
<path d="M204.341 148.025C205.788 147.471 208.433 146.979 209.229 145.388C209.344 145.158 209.089 145.217 208.936 145.217" stroke="#00ADB5" stroke-opacity="0.5" stroke-linecap="round" stroke-linejoin="round"/>
<path d="M205.873 147.855C205.78 149.806 205.8 151.79 204.686 153.461C204.143 154.276 203.766 154.818 203.575 155.773C203.371 156.793 203.148 157.644 202.682 158.576C202.223 159.495 201.684 160.246 201.231 161.128C200.996 161.585 200.418 162.026 200.531 162.575C200.588 162.852 200.451 163.101 200.361 163.359C200.095 164.128 199.598 164.805 199.132 165.468C198.816 165.918 198.82 166.726 199.236 165.893" stroke="#00ADB5" stroke-opacity="0.5" stroke-linecap="round" stroke-linejoin="round"/>
<path d="M198.981 163.596C199.749 163.762 200.916 164.277 201.703 164.277C201.718 164.277 201.035 163.451 200.938 163.341" stroke="#00ADB5" stroke-opacity="0.5" stroke-linecap="round" stroke-linejoin="round"/>
<path d="M199.491 160.107C200.577 160.571 201.665 161.03 202.743 161.511C202.996 161.624 202.982 161.641 202.895 161.554C202.708 161.367 202.549 161.164 202.384 160.958" stroke="#00ADB5" stroke-opacity="0.5" stroke-linecap="round" stroke-linejoin="round"/>
<path d="M200.512 157.81C201.82 158.217 203.126 158.654 204.45 159.011C204.598 159.051 204.806 159.13 204.663 158.982C204.377 158.687 204.049 158.426 203.746 158.15" stroke="#00ADB5" stroke-opacity="0.5" stroke-linecap="round" stroke-linejoin="round"/>
<path d="M201.193 154.917C202.682 155.645 204.165 156.43 205.693 157.077C205.944 157.184 206.028 157.262 205.977 157.063C205.907 156.793 205.803 156.538 205.703 156.278" stroke="#00ADB5" stroke-opacity="0.5" stroke-linecap="round" stroke-linejoin="round"/>
<path d="M203.065 152.875C203.2 152.94 207.32 155.174 206.979 154.321" stroke="#00ADB5" stroke-opacity="0.5" stroke-linecap="round" stroke-linejoin="round"/>
<path d="M203.916 151.514C205.159 151.806 206.415 152.072 207.659 152.279" stroke="#00ADB5" stroke-opacity="0.5" stroke-linecap="round" stroke-linejoin="round"/>
<path d="M205.277 150.152C205.845 150.179 206.412 150.208 206.979 150.237" stroke="#00ADB5" stroke-opacity="0.5" stroke-linecap="round" stroke-linejoin="round"/>
<path d="M194.046 175.678C193.455 175.913 189.813 176.818 189.792 177.824C189.783 178.217 189.792 178.611 189.839 179.001C189.985 180.213 190.829 180.847 191.862 181.426C193.176 182.162 194.59 182.185 196.022 181.766C197.383 181.369 198.268 179.863 197.723 178.571C197.611 178.303 198.002 178.248 197.747 177.937C197.5 177.635 197.337 177.811 196.939 177.89" stroke="#00ADB5" stroke-opacity="0.5" stroke-linecap="round" stroke-linejoin="round"/>
<path d="M192.259 178.826C192.936 177.113 193.78 175.402 194.174 173.593C194.277 173.12 194.404 172.722 194.66 172.293C195.203 171.389 195.681 170.424 196.003 169.419C196.309 168.466 196.328 167.525 196.731 166.593C196.875 166.26 197.732 165.263 197.364 165.723" stroke="#00ADB5" stroke-opacity="0.5" stroke-linecap="round" stroke-linejoin="round"/>
<path d="M198.981 166.574C198.665 168.545 198.191 170.431 197.856 172.379C197.67 173.458 197.364 174.361 197.364 175.498C197.364 176.312 197.655 176.99 197.468 177.805C197.254 178.744 197.061 178.281 196.684 177.635" stroke="#00ADB5" stroke-opacity="0.5" stroke-linecap="round" stroke-linejoin="round"/>
<path d="M198.13 166.574C197.538 167.804 196.258 169.827 196.258 171.381C196.258 172.265 196.315 173.202 196.253 174.099C196.18 175.165 195.347 176.547 194.849 177.465C194.684 177.769 194.469 178.004 194.367 178.335C194.24 178.747 194.331 178.772 194.046 178.316" stroke="#00ADB5" stroke-opacity="0.5" stroke-linecap="round" stroke-linejoin="round"/>
<path d="M192.004 177.039C193.453 178.076 196.011 180.191 197.79 178.363C198.067 178.078 198.468 177.469 198.622 177.105C198.832 176.609 198.151 177.03 197.705 177.124" stroke="#00ADB5" stroke-opacity="0.5" stroke-linecap="round" stroke-linejoin="round"/>
<path d="M193.706 175.508C194.532 175.481 196.203 175.704 197.005 175.29C197.032 175.277 196.943 175.3 196.92 175.319C196.841 175.382 196.677 175.279 196.598 175.253" stroke="#00ADB5" stroke-opacity="0.5" stroke-linecap="round" stroke-linejoin="round"/>
<path d="M194.641 172.36C195.248 172.52 197.442 173.455 197.534 172.445" stroke="#00ADB5" stroke-opacity="0.5" stroke-linecap="round" stroke-linejoin="round"/>
<path d="M195.662 169.807C196.414 170.298 199.465 172.57 198.981 170.147" stroke="#00ADB5" stroke-opacity="0.5" stroke-linecap="round" stroke-linejoin="round"/>
<path d="M196.513 168.616C197.279 168.814 198.045 169.013 198.811 169.211" stroke="#00ADB5" stroke-opacity="0.5" stroke-linecap="round" stroke-linejoin="round"/>
<path d="M200.257 168.616C201.204 169.508 203.094 171.584 203.15 173.144C203.195 174.417 203.15 175.648 203.15 176.935C203.15 177.872 203.329 178.871 203.235 179.762C203.112 180.931 201.317 180.946 201.746 182.319C201.889 182.778 201.765 183.049 202.167 183.378C202.514 183.662 202.766 183.991 202.895 184.442C203.195 185.493 202.597 186.442 201.874 187.165C201.421 187.617 200.834 188.527 200.3 188.824C200.036 188.97 199.496 188.866 199.194 188.866C198.913 188.866 198.346 189.049 198.092 189.164C197.719 189.334 197.243 189.034 196.769 189.207" stroke="#00ADB5" stroke-opacity="0.5" stroke-linecap="round" stroke-linejoin="round"/>
<path d="M186.984 173.551C187.327 174.69 187.582 175.638 188.156 176.614C188.392 177.015 188.359 177.379 188.255 177.848C188.134 178.393 187.736 179.67 188.047 180.23C188.525 181.09 188.515 182.001 188.515 182.953C188.515 183.87 189.95 184.269 190.42 184.74C191.119 185.438 190.816 186.331 191.966 186.635C192.217 186.702 192.611 186.706 192.807 186.867C192.957 186.989 193.131 187.294 193.327 187.33C193.732 187.404 194.275 187.323 194.641 187.486C194.947 187.622 195.171 187.818 195.45 187.973C195.757 188.144 196.178 187.952 196.513 188.119C197.658 188.691 197.146 188.147 196.343 187.505" stroke="#00ADB5" stroke-opacity="0.5" stroke-linecap="round" stroke-linejoin="round"/>
<path d="M102.31 130.816C100.037 133.725 90.2744 145.367 98.5924 148.001C101.174 148.819 104.534 146.939 107.316 147.211C111.251 147.594 113.462 150.939 114.43 154.412C115.545 158.412 109.395 165.524 112.352 167.674C117.415 171.357 124.708 165.129 128.892 170.075C131.264 172.877 128.77 176.949 130.239 170.338" stroke="#00ADB5" stroke-opacity="0.5" stroke-linecap="round" stroke-linejoin="round"/>
<path d="M216.494 85.4984C218.685 88.4019 223.9 94.9427 225.862 98.6723C227.531 101.847 225.427 101.719 223.637 100.458C221.496 98.9497 221.796 95.7417 222.407 93.5198C224.47 86.0189 237.821 79.123 239.328 90.6508C239.858 94.7001 236.238 101.509 231.307 99.9018C224.797 97.7805 225.212 87.8448 230.136 84.1517C235.172 80.3743 243.427 84.7148 243.427 90.885C243.427 97.7353 235.284 99.8562 232.127 93.8126C229.256 88.3196 234.342 82.5736 239.797 81.7512C241.803 81.4487 246.985 83.766 243.368 84.9714" stroke="#00ADB5" stroke-opacity="0.5" stroke-linecap="round" stroke-linejoin="round"/>
<path d="M326.627 137.667C323.214 141.057 312.43 148.963 321.503 152.041C326.783 153.832 331.67 150.896 334.941 146.889C338.55 142.467 339.162 135.474 333.418 132.602C328.951 130.369 325.101 126.781 321.357 132.397" stroke="#00ADB5" stroke-opacity="0.5" stroke-linecap="round" stroke-linejoin="round"/>
<path d="M443.084 184.039C436.568 187.92 426.675 192.608 436.761 196.276C438.311 196.84 439.32 196.473 440.684 195.515C445.725 191.972 446.022 190.553 445.719 185.093C445.518 181.477 440.231 182.303 437.815 183.512C434.25 185.294 431.764 188.861 430.32 192.47C428.377 197.327 438.42 197.03 439.805 191.182C440.673 187.516 436.48 182.308 433.599 186.791C429.781 192.729 435.607 198.04 439.278 191.826C442.795 185.875 434.578 183.42 432.369 190.362C429.465 199.49 446.729 189.579 440.449 186.439C436.706 184.568 430.386 196.453 437.288 193.495C445.668 189.903 436.292 184.611 436.292 192.997C436.292 199.803 447.549 189.926 440.215 187.259C438.538 186.649 436.883 192.007 438.078 193.202C440.156 195.28 443.766 189.899 443.582 187.962C442.79 179.646 434.649 200.788 444.343 191.094C446.557 188.88 446.466 184.878 442.791 187.23C440.623 188.618 439.25 194.509 443.348 193.144C447.282 191.832 447.282 184.544 443.055 186.235C440.475 187.266 439.541 190.918 436.761 190.362" stroke="#00ADB5" stroke-opacity="0.5" stroke-linecap="round" stroke-linejoin="round"/>
<path d="M386.173 238.315C385.085 239.516 367.722 260.94 376.453 250.025C378.45 247.529 380.285 245.074 383.011 243.321C384.691 242.241 386.31 241.574 387.754 240.13C389.331 238.553 387.094 238.656 386.729 241.945C386.411 244.809 386.655 257.314 386.173 257.286C382.918 257.094 380.784 253.89 377.771 252.836C376.157 252.271 371.371 253.084 372.706 252.016C375.97 249.405 385.966 241.918 383.011 244.873C380.772 247.112 376.17 255.527 377.741 252.777C378.859 250.822 381.88 244.452 381.43 245.517C380.504 247.711 378.891 251.47 379.03 253.89C379.161 256.186 383.722 250.535 384.006 249.967C386.121 245.738 381.746 255.248 383.304 252.982C384.707 250.941 389.45 245.753 386.056 250.845C385.313 251.959 389.572 246.818 388.808 247.918C388.586 248.237 386.655 251.475 387.783 250.347C391.823 246.307 385.87 250.508 385.119 249.381" stroke="#00ADB5" stroke-opacity="0.5" stroke-linecap="round" stroke-linejoin="round"/>
<path d="M350.867 325.79C352.711 323.163 363.252 311.574 354.585 311.064C353.12 310.978 350.099 310.503 348.876 311.503C345.967 313.883 347.228 320.303 351.16 321.018C356.373 321.966 361.258 314.837 355.609 312.089C349.708 309.218 335.778 320.749 341.792 325.497C353.631 334.844 364.338 307.681 349.023 311.591C335.131 315.138 347.369 329.447 353.677 320.227C360.431 310.356 339.605 310.271 343.285 321.311C345.099 326.755 351.056 324.128 352.126 319.73C353.694 313.283 347.282 315.945 347.178 320.403C347.067 325.181 354.429 316.536 350.018 316.919C346.83 317.197 346.516 321.574 344.016 321.574" stroke="#00ADB5" stroke-opacity="0.5" stroke-linecap="round" stroke-linejoin="round"/>
<path d="M141.139 276.256C142.203 281.084 144.301 295.691 144.301 290.747C144.301 287.334 141.693 284.149 141.168 280.735C140.985 279.542 141.363 276.014 140.348 275.202C139.654 274.647 146.216 279.754 147.96 280.735C151.142 282.525 153.423 285.869 156.186 282.316C157.513 280.61 161.416 280.375 161.954 279.945C165.855 276.823 165.497 272.165 166.403 268.088C166.726 266.635 165.906 273.052 165.906 274.939C165.906 277.352 166.341 280.547 166.989 282.814C167.908 286.032 167.54 276.949 166.667 275.202C165.248 272.364 165.379 269.846 165.379 266.771C165.379 265.557 174.188 280.774 172.639 281.935C171.992 282.421 163.366 280.042 160.753 280.882C158.503 281.605 156.447 282.449 154.313 283.516C153.729 283.808 152.766 284.87 153.142 284.57C154.479 283.5 158.573 280.574 156.947 281.116C154.715 281.86 152.522 284.02 150.507 285.214C146.709 287.465 145.48 287.151 143.891 291.011C143.662 291.567 146.497 291.496 147.052 291.655C151.041 292.794 153.547 289.688 157.065 288.259C161.605 286.414 166.826 282.626 171.702 282.053C175.383 281.619 169.786 280.329 169.594 279.945" stroke="#00ADB5" stroke-opacity="0.5" stroke-linecap="round" stroke-linejoin="round"/>
<path d="M342.435 73.3785C352.367 70.1949 368.451 66.5336 377.332 59.2678C378.943 57.9494 381.439 56.6856 380.874 54.1446C378.753 44.5989 374.137 42.3601 365.036 43.3713C359.988 43.9322 355.143 48.5885 350.457 50.4852C345.633 52.4379 340.806 55.0034 336.405 57.804C331.95 60.6386 334.531 62.0426 334.531 66.9379C334.531 69.6298 336.139 73.3785 339.01 73.3785C340.319 73.3785 344.07 72.3246 340.357 72.3246C337.443 72.3246 332.919 72.7662 330.315 71.3878C328.327 70.3352 332.252 68.2626 333.184 68.1382C336.515 67.6942 329.368 70.9521 328.647 71.1828C327.163 71.6575 333.999 66.4775 330.198 67.6991C326.079 69.0233 332.193 65.4724 333.477 64.8301C334.927 64.1052 333.662 65.2529 334.004 64.6545C334.551 63.697 337.718 60.1791 334.853 63.0443C333.894 64.0036 337.018 61.4083 338.073 60.5559C340.061 58.9506 337.539 61.3862 337.049 61.7855C334.788 63.6253 334.259 62.1407 332.423 62.9565C331.656 63.2975 329.788 64.4285 329.788 63.1029C329.788 60.8158 337.858 59.7739 339.332 59.7069C348.358 59.2967 354.675 55.3151 362.987 53.2371C366.986 52.2371 371.358 50.7969 375.107 49.0215C377.887 47.7047 383.456 43.582 386.407 44.4253C387.567 44.7566 369.673 55.1681 374.814 51.7733C379.066 48.9651 383.943 46.9932 377.566 52.271C372.457 56.4992 381.445 51.5742 382.162 51.8612C383.451 52.3766 374.227 57.6443 381.254 54.4081C383.942 53.1704 386.173 53.1093 386.173 50.1925C386.173 46.2331 387.256 41.5403 382.221 43.3713C376.41 45.4842 371.747 50.0005 365.739 51.7733C361.597 52.9955 357.562 54.5388 353.501 55.989C348.79 57.6717 340.262 59.5532 336.902 63.6591C335.112 65.8473 331.924 74.375 338.513 70.6852C344.557 67.3002 345.519 60.4518 348.759 55.0522C350.368 52.3702 345.955 60.7168 345.304 63.7762C344.557 67.2949 347.868 71.3442 351.657 70.6852C355.813 69.9623 360.186 64.2224 361.669 60.7316C368.8 43.9529 355.865 60.2266 359.532 63.8933C363.423 67.7846 369.353 57.4763 370.13 54.9351C371.065 51.8732 371.615 48.0989 372.735 45.1864C374.188 41.409 364.912 45.6634 364.041 46.0939C359.216 48.4784 355.847 51.6592 352.565 55.8719C351.376 57.3967 346.607 64.5741 349.871 66.206C354.245 68.3931 359.615 61.5952 359.737 58.0675C360.149 46.1174 350.31 52.2419 344.368 56.9258C340.696 59.8201 343.886 65.6047 344.543 64.9472" stroke="#00ADB5" stroke-opacity="0.5" stroke-linecap="round" stroke-linejoin="round"/>
<path d="M209.116 358.988C208.887 359.171 200.216 366.649 200.216 364.521C200.216 363.274 201.176 361.94 202.031 361.125C203.723 359.514 210.403 358.275 208.794 362.208C207.715 364.847 203.304 368.734 202.061 363.76C201.544 361.694 205.09 357.549 207.242 359.31C209.616 361.252 204.513 363.727 202.91 362.852C200.046 361.29 203.485 355.729 206.247 356.88C209.136 358.084 205.163 361.374 203.847 362.033C200.769 363.571 201.2 361.084 199.631 359.515" stroke="#00ADB5" stroke-opacity="0.5" stroke-linecap="round" stroke-linejoin="round"/>
<path d="M66.3114 358.461C69.349 363.466 75.1343 368.66 69.2389 373.216C67.7182 374.391 58.7479 379.089 59.2853 373.626C59.9397 366.973 69.8546 366.825 70.4684 360.862C71.0755 354.965 56.9917 357.186 53.7815 353.191C51.7705 350.689 50.1487 345.143 50.6198 341.95C50.8033 340.706 53.9569 338.293 53.6352 340.545C53.0462 344.667 39.7532 355.228 47.6337 358.695C52.9173 361.02 54.2804 355.134 58.1728 353.718C66.1906 350.803 54.1914 372.427 54.1914 366.892" stroke="#00ADB5" stroke-opacity="0.5" stroke-linecap="round" stroke-linejoin="round"/>
<path d="M324.519 426.965C322.078 432.74 317.142 450.536 317.142 444.267C317.142 443.29 317.331 442.517 317.669 441.603C319.255 437.31 321.092 433.315 323.758 429.541C325.213 427.482 326.947 421.451 329.027 426.028C329.998 428.164 332.775 434.108 331.604 436.45C330.134 439.39 325.572 441.076 322.528 441.193C321.736 441.223 313.423 442.315 316.117 439.846C319.283 436.945 322.346 428.119 327.125 427.521C327.862 427.429 329.404 427.922 330.052 428.282C331.194 428.917 329.803 430.062 329.262 430.947C328.612 432.007 323.475 439.173 323.465 438.851C323.32 434.049 328.246 427.077 330.901 423.452C331.853 422.152 326.788 430.975 325.632 432.967C324.737 434.507 325.904 437.781 321.884 436.977" stroke="#00ADB5" stroke-opacity="0.5" stroke-linecap="round" stroke-linejoin="round"/>
<path d="M161.163 3.29348C158.812 12.4911 156.717 21.2546 155.864 30.6366C155.779 31.575 155.186 32.1818 155.776 32.92C156.655 34.0188 158.98 27.0326 159.875 25.1621C162.711 19.2332 165.906 16.8934 165.906 9.61693C165.906 8.56698 165.906 2.52384 165.906 6.51376C165.906 9.90115 166.548 13.249 166.316 16.643C166.14 19.2083 163.678 26.1313 165.496 24.3131C168.302 21.5068 166.054 7.43608 161.661 7.06999C155.664 6.57029 152.773 19.5675 152.088 23.6105C151.29 28.3145 154.607 30.2838 158.265 26.6259C163.258 21.633 164.341 11.3683 160.051 5.5184C154.157 -2.51837 150.289 11.9827 149.804 15.5305C148.707 23.556 153.189 26.1277 158.499 20.4195C160.452 18.32 164.39 14.6898 163.564 11.432C162.465 7.09854 156.06 11.3065 154.781 13.1885C152.968 15.8571 152.991 22.5042 155.923 24.4009C158.66 26.1719 161.323 18.8337 161.017 16.9943C159.717 9.19329 145.012 21.5771 152.322 26.0111C158.684 29.8702 162.902 12.6052 155.074 14.7401C152.894 15.3346 147.717 21.2099 152.205 21.2099" stroke="#00ADB5" stroke-opacity="0.5" stroke-linecap="round" stroke-linejoin="round"/>
<path d="M21.5201 153.476C19.1521 160.185 17.4474 164.467 11.4494 168.23C9.9434 169.175 7.95319 170.847 7.64359 172.739C6.98209 176.781 13.3585 181.236 16.9824 180.028C24.6181 177.483 13.0636 169.926 11.83 167.733C9.68207 163.914 17.4451 157.055 21.0224 159.067C23.8069 160.633 25.0413 166.092 23.3937 168.757C20.9934 172.64 15.8344 172.794 11.8007 172.182C8.58826 171.696 2.15361 172.357 4.04273 177.13C6.4066 183.102 17.5631 179.972 19.2366 174.905C20.8658 169.972 12.0455 168.113 13.9378 163.488C15.2376 160.31 19.3417 156.345 22.9838 156.345C27.3465 156.345 22.9897 164.494 22.3398 165.771C19.4698 171.412 15.0785 171.975 9.51721 173.5C-0.949698 176.37 10.3262 176.774 10.981 173.5" stroke="#00ADB5" stroke-opacity="0.5" stroke-linecap="round" stroke-linejoin="round"/>
<path d="M8.87303 225.668C7.75441 229.881 4.4471 237.069 4.77449 241.653C4.92789 243.8 5.51458 237.409 5.76985 235.271C6.25623 231.197 6.81262 226.597 8.99013 223.034C9.3766 222.401 18.3139 233.557 19.1194 235.388C21.275 240.287 18.5762 239.354 15.1965 240.95C13.3181 241.837 0.5003 246.362 0.5003 245.166C0.5003 243.913 2.91675 241.366 3.48638 240.306C5.26927 236.989 7.18218 232.824 7.93622 229.123C9.54662 221.217 8.34607 237.486 8.34607 238.725C8.34607 239.477 8.63834 243.878 6.88231 243.878C4.6846 243.878 8.36806 239.741 9.10723 237.671C9.8911 235.476 13.0113 229.008 12.2397 226.693C11.1469 223.415 10.6002 233.456 10.4832 236.91C10.4038 239.251 9.27108 243.158 11.0979 239.369C11.6801 238.162 13.5592 233.211 13.5278 233.573C13.2629 236.619 12.0348 239.76 12.0348 242.824C12.0348 245.959 13.6887 235.866 16.5431 234.568C17.2529 234.245 16.2504 240.196 16.2504 241.067C16.2504 242.653 17.7727 234.973 17.7727 236.559C17.7727 237 17.1411 239.673 16.6602 238.842C14.6895 235.438 13.2069 233.335 9.16578 232.109C7.32531 231.551 1.47525 231.933 3.39855 231.933C4.66277 231.933 6.64827 227.534 8.05332 228.684C9.91746 230.209 7.3591 235.078 6.76521 236.734C5.79278 239.447 5.18398 235.632 7.58492 235.915C10.0866 236.209 7.53431 245.447 8.93158 243.351C9.58009 242.378 11.5445 237.579 11.4785 238.14C10.203 248.982 10.4684 235.175 12.5617 238.315" stroke="#00ADB5" stroke-opacity="0.5" stroke-linecap="round" stroke-linejoin="round"/>
<path d="M269.716 82.3367C276.421 82.0056 282.895 84.4842 281.836 76.5402C281.311 72.6038 279.105 66.1685 280.255 62.3124C281.476 58.2185 288.972 48.9859 282.568 46.0939C277.198 43.6687 270.179 50.5268 269.189 55.1692C268.777 57.1001 268.865 63.1321 272.058 63.1321C274.471 63.1321 276.012 60.763 278.118 62.8686C280.871 65.6213 281.362 68.1323 279.406 71.5927C274.711 79.8989 256.138 70.6213 266.144 60.6144C267.516 59.2428 272.941 52.9524 275.512 54.7594C279.05 57.2454 278.572 63.7178 276.742 66.9379C274.918 70.1489 268.221 73.5113 265.588 69.397C264.287 67.3638 264.91 66.0011 267.081 66.0011" stroke="#00ADB5" stroke-opacity="0.5" stroke-linecap="round" stroke-linejoin="round"/>
<path d="M325.855 131.651C326.473 131.401 345.751 121.884 344.854 127.113C344.373 129.92 344.694 132.537 345.088 135.34C345.239 136.412 347.852 144.766 345.235 144.766C340.357 144.766 335.597 142.317 330.714 143.244C328.69 143.628 324.658 145.016 324.508 141.78C324.395 139.355 322.38 128.449 327.172 129.514C331.122 130.392 331.294 127.257 328.489 134.227C328.091 135.217 325.475 142.652 325.913 142.307C330.296 138.863 332.701 132.241 336.716 128.226C339.223 125.719 334.925 135.781 334.403 137.038C331.735 143.46 338.554 131.595 339.321 130.422C342.691 125.268 340.132 134.494 339.614 136.013C338.055 140.579 342.847 132.053 344.766 130.919C351.126 127.161 345.118 140.141 343.771 137.448" stroke="#00ADB5" stroke-opacity="0.5" stroke-linecap="round" stroke-linejoin="round"/>
<path d="M273.931 230.938C274.234 238.683 274.099 242.909 280.665 238.023C282.528 236.636 281.736 239.917 281.28 240.716C280.517 242.051 276.043 248.765 280.548 246.19C281.688 245.539 284.763 244.238 284.763 246.747C284.763 247.142 283.385 251.989 284.734 250.64C286.946 248.428 286.985 240.091 287.105 236.852C287.132 236.144 287.441 235.322 286.813 235.681C283.582 237.526 282.049 247.189 280.372 250.962C278.925 254.219 274.751 250.382 272.351 248.854C267.801 245.959 270.662 248.015 270.77 247.8" stroke="#00ADB5" stroke-opacity="0.5" stroke-linecap="round" stroke-linejoin="round"/>
<path d="M237.572 299.969C237.552 300.215 236.933 315.342 237.045 307.991C237.079 305.747 237.014 303.501 237.045 301.257C237.132 294.884 238.269 297.841 241.026 300.467C242.29 301.67 246.927 304.269 246.178 306.702C245.958 307.419 238.513 308.716 237.337 309.162C236.455 309.496 231.248 312.775 231.248 312.616C231.248 308.7 232.627 304.463 233.092 300.555C234.078 292.278 239.804 314.433 240.177 308.84C240.265 307.522 240.206 299.684 240.206 301.638C240.206 303.094 241.26 310.854 241.26 305.766C241.26 304.614 241.26 303.463 241.26 302.311C241.26 301.768 241.556 304.367 241.758 303.863C242.488 302.037 241.26 298.367 241.26 302.838C241.26 307.857 239.853 304.243 236.781 304.243C234.153 304.243 232.648 313.874 234 311.621C235.184 309.647 232.851 301.609 233.883 305.736C234.423 307.897 235.72 305.509 236.518 304.712" stroke="#00ADB5" stroke-opacity="0.5" stroke-linecap="round" stroke-linejoin="round"/>
</svg>
