<svg width="387" height="302" viewBox="0 0 387 302" fill="none" xmlns="http://www.w3.org/2000/svg">
<path d="M82.2605 145.935L150.323 142.643C150.323 142.643 210.195 118.636 238.063 166.75C265.932 214.865 186.254 275.244 186.254 275.244L158.239 269.304L174.325 208.968C174.325 208.968 105.564 226.022 82.2605 145.935Z" fill="#00ADB5"/>
<path d="M82.2605 145.935L82.2267 145.236C82.0126 145.246 81.8151 145.354 81.6906 145.528C81.5661 145.703 81.5285 145.925 81.5883 146.131L82.2605 145.935ZM150.323 142.643L150.357 143.343L150.474 143.337L150.583 143.293L150.323 142.643ZM186.254 275.244L186.109 275.929L186.422 275.995L186.677 275.802L186.254 275.244ZM158.239 269.304L157.562 269.123L157.372 269.836L158.093 269.989L158.239 269.304ZM174.325 208.968L175.002 209.149L175.307 208.003L174.157 208.289L174.325 208.968ZM82.2944 146.634L150.357 143.343L150.289 141.944L82.2267 145.236L82.2944 146.634ZM186.399 274.559L158.384 268.619L158.093 269.989L186.109 275.929L186.399 274.559ZM158.915 269.484L175.002 209.149L173.649 208.788L157.562 269.123L158.915 269.484ZM174.325 208.968C174.157 208.289 174.157 208.289 174.157 208.289C174.156 208.289 174.156 208.289 174.155 208.289C174.154 208.289 174.151 208.29 174.147 208.291C174.14 208.293 174.129 208.296 174.113 208.299C174.082 208.307 174.035 208.318 173.972 208.332C173.845 208.361 173.655 208.403 173.406 208.455C172.906 208.558 172.166 208.7 171.214 208.853C169.31 209.16 166.558 209.51 163.182 209.682C156.426 210.027 147.183 209.658 137.224 206.811C117.351 201.13 94.517 185.551 82.9328 145.739L81.5883 146.131C93.3075 186.406 116.505 202.344 136.839 208.157C146.984 211.058 156.388 211.431 163.253 211.081C166.687 210.906 169.489 210.549 171.436 210.236C172.41 210.079 173.17 209.933 173.689 209.826C173.949 209.772 174.148 209.728 174.283 209.697C174.351 209.682 174.402 209.67 174.438 209.661C174.455 209.657 174.469 209.654 174.478 209.652C174.483 209.65 174.486 209.649 174.489 209.649C174.49 209.649 174.492 209.648 174.492 209.648C174.493 209.648 174.494 209.648 174.325 208.968ZM150.323 142.643C150.583 143.293 150.583 143.293 150.584 143.293C150.584 143.293 150.584 143.293 150.585 143.292C150.587 143.292 150.589 143.291 150.592 143.29C150.599 143.287 150.609 143.283 150.623 143.278C150.65 143.267 150.692 143.251 150.747 143.229C150.858 143.186 151.025 143.123 151.244 143.042C151.683 142.881 152.333 142.649 153.171 142.37C154.847 141.813 157.277 141.068 160.282 140.324C166.293 138.834 174.589 137.348 183.742 137.354C202.037 137.367 223.689 143.33 237.457 167.101L238.669 166.4C224.569 142.057 202.351 135.967 183.743 135.954C174.444 135.948 166.031 137.456 159.945 138.964C156.901 139.719 154.435 140.474 152.729 141.041C151.876 141.325 151.212 141.562 150.76 141.729C150.534 141.812 150.361 141.877 150.244 141.923C150.185 141.945 150.141 141.963 150.11 141.975C150.095 141.98 150.083 141.985 150.075 141.988C150.071 141.99 150.068 141.991 150.066 141.992C150.065 141.992 150.064 141.993 150.064 141.993C150.063 141.993 150.062 141.993 150.323 142.643ZM237.457 167.101C244.307 178.928 244.564 191.518 241.052 203.808C237.535 216.114 230.247 228.091 222.057 238.61C213.871 249.123 204.813 258.145 197.797 264.54C194.29 267.737 191.295 270.276 189.179 272.014C188.121 272.884 187.282 273.553 186.709 274.004C186.423 274.229 186.202 274.4 186.054 274.515C185.98 274.572 185.924 274.615 185.887 274.644C185.868 274.658 185.854 274.669 185.845 274.676C185.84 274.679 185.837 274.682 185.834 274.683C185.833 274.684 185.833 274.685 185.832 274.685C185.832 274.686 185.831 274.686 186.254 275.244C186.677 275.802 186.678 275.801 186.678 275.801C186.679 275.8 186.68 275.799 186.681 275.798C186.684 275.796 186.688 275.794 186.693 275.79C186.703 275.782 186.718 275.771 186.737 275.756C186.776 275.726 186.834 275.682 186.91 275.623C187.061 275.506 187.285 275.332 187.575 275.104C188.156 274.647 189.002 273.972 190.068 273.096C192.2 271.345 195.213 268.79 198.74 265.575C205.792 259.146 214.912 250.066 223.162 239.47C231.408 228.88 238.813 216.74 242.398 204.193C245.988 191.63 245.753 178.63 238.669 166.4L237.457 167.101Z" fill="black"/>
<path d="M187.538 274.296L159.546 265.419L148.758 289.213C148.758 289.213 172.723 297.485 188.825 298.078L180.981 289.252L187.538 274.296Z" fill="#EEEEEE" stroke="black" stroke-width="1.39887" stroke-linejoin="round"/>
<path d="M79.4953 148.302L169.32 147.543C169.32 147.543 232.492 160.59 229.157 216.092C225.822 271.595 126.052 277.934 126.052 277.934L105.976 257.511L155.543 210.037C155.543 210.037 87.9759 225.319 79.4953 148.302Z" fill="#00ADB5" stroke="black" stroke-width="1.39887"/>
<path d="M127.646 277.853L109.212 254.995L87.0781 268.874C87.0781 268.874 102.49 289.005 115.586 298.391L113.921 286.702L127.646 277.853Z" fill="#EEEEEE" stroke="black" stroke-width="1.39887" stroke-linejoin="round"/>
<path fill-rule="evenodd" clip-rule="evenodd" d="M87.9028 55.2918C89.1936 53.499 90.2062 51.4728 90.834 49.1883C95.574 31.9422 80.9087 20.7505 68.973 17.8469C57.0371 14.9434 17.3928 46.2822 60.7831 67.8235C60.9002 67.8171 61.0191 67.8099 61.1398 67.8019C68.0923 73.3035 70.3164 80.564 72.985 89.2755C74.0735 92.8287 75.2359 96.6234 76.8233 100.639L96.6644 84.9686C97.1063 73.2882 93.9468 63.9645 87.9028 55.2918Z" fill="#F5B9AB"/>
<path d="M90.834 49.1883L91.5091 49.3738L91.5091 49.3738L90.834 49.1883ZM87.9028 55.2918L87.3346 54.8828C87.161 55.1239 87.1585 55.4483 87.3284 55.6921L87.9028 55.2918ZM68.973 17.8469L69.1384 17.1667L68.973 17.8469ZM60.7831 67.8235L60.4718 68.4506C60.5802 68.5044 60.7006 68.5292 60.8215 68.5225L60.7831 67.8235ZM61.1398 67.8019L61.5742 67.2529C61.4381 67.1453 61.2669 67.092 61.0938 67.1034L61.1398 67.8019ZM72.985 89.2755L73.6544 89.0704L72.985 89.2755ZM76.8233 100.639L76.1723 100.896C76.2537 101.102 76.4276 101.257 76.6414 101.315C76.8552 101.372 77.0835 101.325 77.2573 101.188L76.8233 100.639ZM96.6644 84.9686L97.0983 85.518C97.2591 85.3909 97.3562 85.1998 97.3639 84.995L96.6644 84.9686ZM90.159 49.0028C89.5545 51.202 88.58 53.1531 87.3346 54.8828L88.4709 55.7009C89.8073 53.8448 90.8578 51.7436 91.5091 49.3738L90.159 49.0028ZM68.8075 18.5272C74.6574 19.9502 81.1705 23.4074 85.6258 28.5953C90.0599 33.7585 92.4595 40.6323 90.159 49.0028L91.5091 49.3738C93.9485 40.4982 91.3855 33.153 86.688 27.683C82.0117 22.2377 75.2243 18.6472 69.1384 17.1667L68.8075 18.5272ZM61.0944 67.1964C50.3328 61.8538 44.8482 55.966 42.7353 50.2749C40.6292 44.6021 41.8197 38.9777 44.7341 34.0234C47.6541 29.0596 52.2809 24.8185 56.9196 21.9999C59.2365 20.5921 61.5382 19.5503 63.6095 18.9496C65.6938 18.345 67.4831 18.205 68.8075 18.5272L69.1384 17.1667C67.4788 16.7629 65.4183 16.9671 63.2195 17.6048C61.0076 18.2463 58.5929 19.3448 56.1926 20.8033C51.397 23.7172 46.5866 28.1128 43.5273 33.3134C40.4624 38.5235 39.1316 44.5913 41.4227 50.7623C43.707 56.915 49.5382 63.0226 60.4718 68.4506L61.0944 67.1964ZM61.0938 67.1034C60.9756 67.1111 60.8592 67.1182 60.7447 67.1245L60.8215 68.5225C60.9412 68.516 61.0626 68.5086 61.1858 68.5005L61.0938 67.1034ZM73.6544 89.0704C70.9948 80.3883 68.7227 72.9096 61.5742 67.2529L60.7054 68.3509C67.4619 73.6975 69.638 80.7397 72.3156 89.4805L73.6544 89.0704ZM77.4744 100.381C75.8986 96.3954 74.7436 92.626 73.6544 89.0704L72.3156 89.4805C73.4034 93.0315 74.5733 96.8514 76.1723 100.896L77.4744 100.381ZM96.2304 84.4192L76.3894 100.089L77.2573 101.188L97.0983 85.518L96.2304 84.4192ZM87.3284 55.6921C93.2918 64.2491 96.4005 73.4247 95.9648 84.9421L97.3639 84.995C97.812 73.1517 94.6018 63.6798 88.4771 54.8915L87.3284 55.6921Z" fill="black"/>
<path d="M42.7147 49.2858C42.5372 56.0446 53.6746 64.8701 58.1747 65.9122C28.5785 68.5943 23.8979 32.4416 33.8636 32.841C28.1834 22.1594 37.2121 10.892 50.7108 14.0164C59.5115 -14.9964 78.7826 11.1503 74.6718 19.9125C70.5609 28.6747 59.5647 30.4648 56.6601 35.5166C53.7555 40.5684 59.747 55.1384 53.5324 49.0155C47.3177 42.8926 42.9366 40.8372 42.7147 49.2858Z" fill="#00ADB5" stroke="black" stroke-width="1.39887"/>
<path d="M171.47 144.483C184.238 115.066 143.232 85.0548 134.187 78.8911C133.024 78.0991 131.844 77.4027 130.614 76.7198C107.075 63.6466 73.9492 61.9354 61.8906 86.0101C40.8127 128.092 93.3621 172.025 112.771 200.008L171.47 144.483Z" fill="#EEEEEE"/>
<path d="M134.187 78.8911L134.581 78.3126L134.187 78.8911ZM171.47 144.483L171.952 144.992L172.056 144.894L172.113 144.762L171.47 144.483ZM112.771 200.008L112.196 200.407C112.312 200.575 112.496 200.684 112.699 200.705C112.902 200.726 113.104 200.657 113.252 200.517L112.771 200.008ZM61.8906 86.0101L61.2647 85.6966L61.8906 86.0101ZM130.614 76.7198L130.954 76.1078L130.614 76.7198ZM133.793 79.4696C138.297 82.539 150.744 91.538 160.467 103.411C170.214 115.314 177.047 129.877 170.828 144.205L172.113 144.762C178.662 129.672 171.375 114.521 161.55 102.523C151.7 90.4953 139.122 81.4069 134.581 78.3126L133.793 79.4696ZM170.989 143.975L112.29 199.5L113.252 200.517L171.952 144.992L170.989 143.975ZM113.346 199.609C108.47 192.579 101.516 184.552 94.2045 175.858C86.8789 167.147 79.1733 157.745 72.7339 147.912C59.8382 128.221 52.1538 107.013 62.5166 86.3236L61.2647 85.6966C50.5495 107.089 58.6009 128.888 71.5626 148.68C78.0519 158.588 85.8055 168.046 93.1329 176.759C100.474 185.488 107.367 193.446 112.196 200.407L113.346 199.609ZM130.274 77.3319C131.494 78.0093 132.654 78.6941 133.793 79.4696L134.581 78.3126C133.394 77.504 132.194 76.7962 130.954 76.1078L130.274 77.3319ZM130.954 76.1078C119.087 69.517 104.786 65.7771 91.8953 66.7364C78.9878 67.6969 67.4322 73.3832 61.2647 85.6966L62.5166 86.3236C68.4076 74.5623 79.4444 69.0669 91.9992 68.1327C104.571 67.1971 118.602 70.8495 130.274 77.3319L130.954 76.1078Z" fill="black"/>
<path d="M187.301 129.263L166.941 105.294L137.351 128.341C132.661 94.5628 95.0807 67.3293 80.5399 71.1C41.4496 81.2379 85.7692 168.971 114.044 181.667C142.318 194.362 187.301 129.263 187.301 129.263Z" fill="#EEEEEE" stroke="black" stroke-width="1.39887"/>
<path d="M168.707 103.354L166.122 105.933L186.811 129.968L191.034 125.767C198.116 118.722 196.975 106.957 188.671 101.404C182.402 97.2117 174.046 98.028 168.707 103.354Z" fill="#F5B9AB" stroke="black" stroke-width="1.39887" stroke-linejoin="round"/>
<path fill-rule="evenodd" clip-rule="evenodd" d="M65.4422 197.424C65.1121 197.339 64.7798 197.581 64.7804 197.922L64.9394 289.185H46.6772C46.3996 289.185 46.1745 289.41 46.1745 289.687L46.1745 300.797C46.1745 301.075 46.3996 301.3 46.6772 301.3H98.6322C98.9098 301.3 99.1349 301.075 99.1349 300.797V289.687C99.1349 289.41 98.9098 289.185 98.6322 289.185H78.7981V197.447C78.7981 197.148 78.5378 196.915 78.2404 196.949C77.245 197.062 76.3105 197.18 75.4266 197.292C71.3605 197.804 68.3645 198.181 65.4422 197.424Z" fill="#00ADB5"/>
<path d="M64.7804 197.922L64.0803 197.924V197.924L64.7804 197.922ZM65.4422 197.424L65.6177 196.746V196.746L65.4422 197.424ZM64.9394 289.185V289.885H65.6407L65.6395 289.184L64.9394 289.185ZM46.1745 289.687H46.8746H46.1745ZM46.1745 300.797H45.4744H46.1745ZM78.7981 289.185H78.098V289.885H78.7981V289.185ZM78.2404 196.949L78.1608 196.253L78.1608 196.253L78.2404 196.949ZM75.4266 197.292L75.3391 196.597L75.4266 197.292ZM65.4805 197.921C65.4806 197.99 65.4445 198.046 65.4057 198.075C65.3688 198.102 65.3176 198.115 65.2667 198.102L65.6177 196.746C64.8722 196.553 64.0788 197.095 64.0803 197.924L65.4805 197.921ZM65.6395 289.184L65.4805 197.921L64.0803 197.924L64.2393 289.186L65.6395 289.184ZM46.6772 289.885H64.9394V288.485H46.6772V289.885ZM46.8746 289.687C46.8746 289.796 46.7862 289.885 46.6772 289.885V288.485C46.0129 288.485 45.4744 289.023 45.4744 289.687H46.8746ZM46.8746 300.797L46.8746 289.687H45.4744L45.4744 300.797H46.8746ZM46.6772 300.6C46.7862 300.6 46.8746 300.688 46.8746 300.797H45.4744C45.4744 301.462 46.0129 302 46.6772 302V300.6ZM98.6322 300.6H46.6772V302H98.6322V300.6ZM98.4348 300.797C98.4348 300.688 98.5232 300.6 98.6322 300.6V302C99.2964 302 99.8349 301.462 99.8349 300.797H98.4348ZM98.4348 289.687V300.797H99.8349V289.687H98.4348ZM98.6322 289.885C98.5232 289.885 98.4348 289.796 98.4348 289.687H99.8349C99.8349 289.023 99.2965 288.485 98.6322 288.485V289.885ZM78.7981 289.885H98.6322V288.485H78.7981V289.885ZM78.098 197.447V289.185H79.4982V197.447H78.098ZM78.3199 197.644C78.2003 197.658 78.098 197.564 78.098 197.447H79.4982C79.4982 196.731 78.8753 196.171 78.1608 196.253L78.3199 197.644ZM75.514 197.986C76.3984 197.875 77.3291 197.758 78.3199 197.644L78.1608 196.253C77.1609 196.367 76.2226 196.486 75.3391 196.597L75.514 197.986ZM65.2667 198.102C68.344 198.899 71.4836 198.494 75.514 197.986L75.3391 196.597C71.2375 197.113 68.3849 197.463 65.6177 196.746L65.2667 198.102Z" fill="black"/>
<path d="M43.8752 106.462C55.8196 134.932 33.3863 145.364 33.6477 164.289C34.0095 190.48 76.7235 215.752 103.455 161.028" stroke="black" stroke-width="1.39887"/>
<rect x="-4.18839" y="51.5377" width="32.5377" height="105.228" rx="15.8191" transform="rotate(-22.7603 -4.18839 51.5377)" fill="#00ADB5" stroke="black" stroke-width="1.39887"/>
<rect x="289.907" y="159.033" width="15.5766" height="142.266" rx="0.502194" fill="#00ADB5" stroke="black" stroke-width="1.39887"/>
<rect x="173.466" y="158.386" width="52.1561" height="112.621" rx="24.5617" transform="rotate(88.7489 173.466 158.386)" fill="#00ADB5" stroke="black" stroke-width="1.39887"/>
<rect x="385.775" y="131.749" width="32.5377" height="176.988" rx="15.8191" transform="rotate(88.7489 385.775 131.749)" fill="#00ADB5" stroke="black" stroke-width="1.39887"/>
<rect x="360.209" y="46.5207" width="83.075" height="15.5766" rx="2.00878" transform="rotate(105 360.209 46.5207)" fill="#00ADB5" stroke="black" stroke-width="1.39887"/>
<rect x="258.933" y="118.641" width="83.075" height="15.5766" rx="2.00878" fill="#EEEEEE" stroke="black" stroke-width="1.39887"/>
</svg>
