<svg width="257" height="339" viewBox="0 0 257 339" fill="none" xmlns="http://www.w3.org/2000/svg">
<rect x="119.57" y="245.169" width="45.0619" height="93.0078" rx="3.51536" fill="#00ADB5" stroke="black" stroke-width="1.64486" stroke-linejoin="round"/>
<rect x="1.68811" y="272.026" width="45.0619" height="66.1509" rx="3.51536" fill="#EEEEEE" stroke="black" stroke-width="1.64486" stroke-linejoin="round"/>
<rect x="210.776" y="142.067" width="45.0619" height="196.11" rx="3.51536" fill="#00ADB5" stroke="black" stroke-width="1.64486" stroke-linejoin="round"/>
<path d="M61.5031 118.194L107.834 118.194C107.834 118.194 100.45 185.674 90.4007 196.737C80.3512 207.801 27.7561 238.142 27.7561 238.142L10.0434 227.271L43.0634 175.268C43.0634 175.268 39.4322 154.989 61.5031 118.194Z" fill="#00ADB5" stroke="black" stroke-width="1.39887"/>
<path d="M28.5051 237.533L10.0435 227.273L0.699936 237.333C0.699936 237.333 16.451 246.463 27.4402 250.041L22.786 243.902L28.5051 237.533Z" fill="#EEEEEE" stroke="black" stroke-width="1.39887" stroke-linejoin="round"/>
<path d="M61.7006 117.211L112.323 117.144C112.323 117.144 140.464 141.891 144.009 156.41C147.555 170.93 143.512 223.622 143.512 223.622L123.052 232.668L101.929 177.012C101.929 177.012 79.8449 156.092 61.7006 117.211Z" fill="#00ADB5"/>
<path d="M61.7006 117.211L61.6997 116.511C61.4606 116.511 61.2383 116.633 61.11 116.835C60.9817 117.037 60.9653 117.29 61.0663 117.507L61.7006 117.211ZM112.323 117.144L112.785 116.618L112.587 116.444L112.322 116.444L112.323 117.144ZM143.512 223.622L143.795 224.263L144.177 224.093L144.209 223.676L143.512 223.622ZM123.052 232.668L122.397 232.917L122.659 233.607L123.335 233.309L123.052 232.668ZM101.929 177.012L102.583 176.764L102.527 176.614L102.41 176.504L101.929 177.012ZM61.7015 117.911L112.324 117.844L112.322 116.444L61.6997 116.511L61.7015 117.911ZM143.229 222.982L122.769 232.028L123.335 233.309L143.795 224.263L143.229 222.982ZM123.706 232.42L102.583 176.764L101.275 177.261L122.397 232.917L123.706 232.42ZM101.929 177.012C102.41 176.504 102.41 176.504 102.41 176.504C102.41 176.504 102.41 176.504 102.41 176.504C102.409 176.503 102.409 176.503 102.407 176.502C102.405 176.499 102.401 176.496 102.396 176.491C102.386 176.481 102.371 176.467 102.351 176.447C102.31 176.408 102.248 176.348 102.166 176.268C102.003 176.108 101.76 175.867 101.443 175.546C100.809 174.904 99.8818 173.941 98.7109 172.663C96.3691 170.108 93.0544 166.293 89.173 161.264C81.4097 151.208 71.3816 136.301 62.3349 116.915L61.0663 117.507C70.1639 137.002 80.25 151.996 88.0649 162.12C91.9725 167.182 95.3129 171.027 97.6789 173.609C98.8619 174.9 99.8014 175.875 100.446 176.529C100.769 176.856 101.018 177.103 101.187 177.268C101.271 177.351 101.336 177.413 101.38 177.455C101.402 177.477 101.418 177.492 101.43 177.503C101.435 177.509 101.44 177.513 101.443 177.516C101.444 177.517 101.445 177.518 101.446 177.519C101.447 177.52 101.447 177.52 101.447 177.52C101.448 177.52 101.448 177.521 101.929 177.012ZM112.323 117.144C111.861 117.67 111.861 117.67 111.861 117.67C111.861 117.67 111.861 117.67 111.862 117.67C111.863 117.671 111.864 117.672 111.865 117.674C111.869 117.677 111.874 117.681 111.88 117.687C111.893 117.698 111.913 117.716 111.94 117.739C111.992 117.786 112.071 117.856 112.174 117.948C112.379 118.131 112.682 118.403 113.069 118.754C113.842 119.456 114.952 120.476 116.294 121.746C118.981 124.286 122.599 127.823 126.325 131.81C130.053 135.799 133.882 140.23 136.994 144.558C140.118 148.901 142.476 153.081 143.329 156.576L144.689 156.244C143.77 152.479 141.281 148.121 138.131 143.741C134.97 139.345 131.098 134.867 127.348 130.854C123.596 126.84 119.957 123.282 117.256 120.729C115.906 119.452 114.789 118.425 114.01 117.717C113.62 117.364 113.314 117.089 113.106 116.903C113.002 116.81 112.922 116.739 112.868 116.691C112.841 116.668 112.82 116.649 112.806 116.637C112.8 116.631 112.794 116.626 112.791 116.623C112.789 116.622 112.788 116.621 112.787 116.62C112.786 116.619 112.786 116.619 112.786 116.619C112.785 116.619 112.785 116.618 112.323 117.144ZM143.329 156.576C144.195 160.121 144.608 166.065 144.727 173.049C144.847 180.013 144.674 187.947 144.391 195.435C144.107 202.921 143.713 209.955 143.389 215.119C143.228 217.7 143.084 219.813 142.98 221.281C142.928 222.014 142.887 222.587 142.858 222.976C142.844 223.17 142.833 223.318 142.825 223.418C142.821 223.468 142.818 223.506 142.817 223.531C142.816 223.544 142.815 223.553 142.814 223.559C142.814 223.563 142.814 223.565 142.814 223.567C142.814 223.567 142.814 223.568 142.814 223.568C142.814 223.569 142.814 223.569 143.512 223.622C144.209 223.676 144.209 223.676 144.209 223.675C144.21 223.675 144.21 223.674 144.21 223.673C144.21 223.672 144.21 223.669 144.21 223.666C144.211 223.66 144.211 223.65 144.212 223.637C144.214 223.612 144.217 223.574 144.221 223.523C144.229 223.423 144.24 223.274 144.254 223.079C144.283 222.688 144.325 222.115 144.377 221.379C144.48 219.908 144.625 217.792 144.786 215.206C145.11 210.035 145.505 202.989 145.789 195.488C146.073 187.987 146.247 180.025 146.127 173.025C146.008 166.046 145.596 159.959 144.689 156.244L143.329 156.576Z" fill="black"/>
<path fill-rule="evenodd" clip-rule="evenodd" d="M106.101 34.6521C107.252 34.232 108.349 33.6181 109.349 32.7656C116.903 26.3307 113.664 16.6222 109.093 11.5678C104.522 6.51338 76.5586 8.52949 89.7498 31.9446C89.8053 31.9781 89.8619 32.0117 89.9195 32.0456C91.3943 36.7384 90.1506 40.7635 88.6582 45.5931C88.0496 47.5629 87.3996 49.6665 86.8758 52.0038L100.866 51.0013C104.712 45.7798 106.169 40.5163 106.101 34.6521Z" fill="#F5B9AB"/>
<path d="M109.349 32.7656L109.883 33.3921L109.883 33.3921L109.349 32.7656ZM106.101 34.6521L105.819 33.8789C105.491 33.9986 105.274 34.3125 105.278 34.6617L106.101 34.6521ZM109.093 11.5678L109.703 11.0158L109.093 11.5678ZM89.7498 31.9446L89.0327 32.3486C89.1025 32.4725 89.2033 32.5762 89.3251 32.6496L89.7498 31.9446ZM89.9195 32.0456L90.7047 31.7988C90.6435 31.6043 90.5123 31.4393 90.3365 31.336L89.9195 32.0456ZM88.6582 45.5931L87.8719 45.3501L87.8719 45.3501L88.6582 45.5931ZM86.8758 52.0038L86.0727 51.8238C86.0158 52.0778 86.0823 52.3436 86.2522 52.5408C86.422 52.738 86.675 52.8433 86.9346 52.8247L86.8758 52.0038ZM100.866 51.0013L100.925 51.8222C101.165 51.805 101.386 51.6834 101.529 51.4894L100.866 51.0013ZM108.816 32.1391C107.894 32.9242 106.884 33.4903 105.819 33.8789L106.383 35.4253C107.62 34.9738 108.803 34.312 109.883 33.3921L108.816 32.1391ZM108.482 12.1198C110.672 14.5412 112.535 18.0764 112.95 21.7415C113.36 25.3687 112.358 29.1214 108.816 32.1391L109.883 33.3921C113.894 29.9749 115.049 25.656 114.585 21.5565C114.126 17.4951 112.084 13.6489 109.703 11.0158L108.482 12.1198ZM90.4668 31.5406C87.2244 25.7852 86.5947 21.4902 87.3634 18.3685C88.1267 15.269 90.3135 13.1489 93.1126 11.824C95.9232 10.4935 99.2946 9.99811 102.245 10.1485C103.717 10.2236 105.059 10.4582 106.153 10.8144C107.263 11.1756 108.047 11.6385 108.482 12.1198L109.703 11.0158C108.996 10.2336 107.906 9.65377 106.663 9.24923C105.405 8.83972 103.915 8.58554 102.329 8.50466C99.163 8.34326 95.5109 8.86761 92.4083 10.3363C89.2941 11.8104 86.6778 14.2689 85.7652 17.9749C84.858 21.6587 85.6796 26.3965 89.0327 32.3486L90.4668 31.5406ZM90.3365 31.336C90.2814 31.3036 90.2273 31.2715 90.1744 31.2396L89.3251 32.6496C89.3833 32.6846 89.4425 32.7198 89.5026 32.7552L90.3365 31.336ZM89.4446 45.836C90.9262 41.041 92.2675 36.7719 90.7047 31.7988L89.1344 32.2923C90.5211 36.7049 89.3749 40.4861 87.8719 45.3501L89.4446 45.836ZM87.6789 52.1838C88.1945 49.8827 88.8351 47.8086 89.4446 45.836L87.8719 45.3501C87.2641 47.3172 86.6046 49.4503 86.0727 51.8238L87.6789 52.1838ZM100.807 50.1804L86.817 51.1829L86.9346 52.8247L100.925 51.8222L100.807 50.1804ZM105.278 34.6617C105.345 40.3603 103.935 45.4461 100.203 50.5133L101.529 51.4894C105.488 46.1134 106.994 40.6724 106.924 34.6425L105.278 34.6617Z" fill="black"/>
<path d="M87.2398 17.8052C85.0506 20.851 87.4085 28.3736 89.1483 30.2551C74.7323 22.2562 83.8589 4.20854 88.3069 7.49963C89.0318 0.827183 96.6881 -1.52701 101.907 4.11611C114.993 -6.45134 115.681 11.5553 111.063 14.2937C106.444 17.0321 100.84 14.4243 97.9323 15.8364C95.0241 17.2485 93.2296 25.8021 92.2875 21.0547C91.3455 16.3073 89.9763 13.9979 87.2398 17.8052Z" fill="#00ADB5" stroke="black" stroke-width="1.64486"/>
<path d="M114.013 118.29C129.102 108.255 122.805 73.5758 120.658 63.716C120.272 61.9421 119.7 60.2404 119.006 58.5628C113.303 44.7748 99.2313 33.6694 85.7547 40.0742C57.0492 53.7166 61.3167 97.2335 61.5876 118.616L114.013 118.29Z" fill="#EEEEEE" stroke="black" stroke-width="1.64486" stroke-linejoin="round"/>
<path d="M159.399 71.3653L147.288 56.5858L106.482 85.1358L93.2926 58.5881L76.2146 85.1356C76.2146 85.1356 94.7159 113.87 104.114 113.035C121.242 111.514 159.399 71.3653 159.399 71.3653Z" fill="#EEEEEE"/>
<path d="M94.1963 60.5253L106.367 84.3208L147.288 56.5863L159.399 71.3658C159.399 71.3658 123.428 111.266 102.408 113.133C95.792 113.721 76.5176 84.8482 76.5176 84.8482" stroke="black" stroke-width="1.64486"/>
<path d="M151.315 53.919L146.518 56.9976L158.559 72.2534L162.346 69.1853C166.376 65.921 167.014 60.0161 163.775 55.9661C160.759 52.1937 155.38 51.31 151.315 53.919Z" fill="#F5B9AB" stroke="black" stroke-width="1.64486" stroke-linejoin="round"/>
<path d="M143.76 221.703L123.052 232.499L126.614 245.99L154.265 228.963L146.128 230.068L143.76 221.703Z" fill="#EEEEEE" stroke="black" stroke-width="1.39887" stroke-linejoin="round"/>
</svg>
