<svg width="399" height="357" viewBox="0 0 399 357" fill="none" xmlns="http://www.w3.org/2000/svg">
<path fill-rule="evenodd" clip-rule="evenodd" d="M290.287 72.5712C287.841 71.6788 285.511 70.3745 283.386 68.5635C267.339 54.8926 274.22 34.267 283.931 23.5288C293.642 12.7907 353.05 17.0739 325.025 66.8193C324.907 66.8904 324.787 66.962 324.664 67.034C321.531 77.004 324.173 85.5553 327.344 95.8158C328.637 100.001 330.018 104.47 331.13 109.435L301.408 107.306C293.238 96.2122 290.141 85.03 290.287 72.5712Z" fill="#F5B9AB"/>
<path d="M283.386 68.5635L282.931 69.0967L283.386 68.5635ZM290.287 72.5712L290.527 71.9132C290.806 72.0151 290.991 72.2821 290.987 72.5794L290.287 72.5712ZM283.931 23.5288L284.45 23.9987L283.931 23.5288ZM325.025 66.8193L325.635 67.1631C325.576 67.2686 325.49 67.3568 325.386 67.4193L325.025 66.8193ZM324.664 67.034L323.996 66.8241C324.048 66.6584 324.16 66.5181 324.309 66.4301L324.664 67.034ZM327.344 95.8158L326.674 96.0226L327.344 95.8158ZM331.13 109.435L331.814 109.282C331.862 109.498 331.806 109.725 331.661 109.892C331.517 110.06 331.301 110.15 331.08 110.134L331.13 109.435ZM301.408 107.306L301.358 108.004C301.153 107.99 300.966 107.886 300.844 107.721L301.408 107.306ZM283.84 68.0303C285.898 69.7839 288.154 71.0475 290.527 71.9132L290.047 73.2292C287.527 72.3101 285.124 70.965 282.931 69.0967L283.84 68.0303ZM284.45 23.9987C279.676 29.2776 275.604 36.9862 274.695 45.0251C273.79 53.0317 276.016 61.3648 283.84 68.0303L282.931 69.0967C274.709 62.0913 272.352 53.2762 273.303 44.8677C274.25 36.4914 278.474 28.5182 283.411 23.059L284.45 23.9987ZM324.415 66.4755C331.374 54.1228 332.834 44.7163 331.113 37.7263C329.396 30.7552 324.476 26.0357 318.329 23.1259C312.172 20.2113 304.831 19.1404 298.425 19.4669C295.226 19.63 292.281 20.141 289.851 20.9317C287.409 21.7266 285.549 22.7844 284.45 23.9987L283.411 23.059C284.741 21.5887 286.862 20.4314 289.418 19.5996C291.986 18.7635 295.057 18.2359 298.354 18.0678C304.943 17.7319 312.523 18.8275 318.929 21.8597C325.344 24.8965 330.629 29.904 332.473 37.3913C334.312 44.8597 332.689 54.6431 325.635 67.1631L324.415 66.4755ZM324.309 66.4301C324.43 66.3594 324.548 66.2891 324.664 66.2193L325.386 67.4193C325.266 67.4918 325.144 67.5647 325.019 67.638L324.309 66.4301ZM326.674 96.0226C323.513 85.7915 320.788 77.0325 323.996 66.8241L325.332 67.244C322.274 76.9754 324.833 85.3192 328.013 95.609L326.674 96.0226ZM330.447 109.588C329.341 104.654 327.968 100.21 326.674 96.0226L328.013 95.609C329.305 99.7915 330.694 104.286 331.814 109.282L330.447 109.588ZM301.458 106.607L331.181 108.737L331.08 110.134L301.358 108.004L301.458 106.607ZM290.987 72.5794C290.843 84.8972 293.899 95.9282 301.972 106.89L300.844 107.721C292.578 96.4962 289.439 85.1628 289.587 72.563L290.987 72.5794Z" fill="black"/>
<path d="M330.357 36.7789C335.008 43.2497 329.999 59.2314 326.302 63.2288C356.929 46.2349 337.54 7.89283 328.09 14.8847C326.55 0.709137 310.284 -4.29234 299.196 7.69646C271.395 -14.7541 269.933 23.5009 279.745 29.3186C289.558 35.1364 301.463 29.5961 307.641 32.5961C313.819 35.5961 317.632 53.7683 319.633 43.6824C321.634 33.5966 324.543 28.6904 330.357 36.7789Z" fill="#00ADB5" stroke="black" stroke-width="1.39887"/>
<path d="M357.845 319.054L314.733 315.925L325.109 199.882C325.109 199.882 275.09 81.3531 318.028 81.3525C378.696 81.3525 398.983 174.824 398.227 199.882C397.47 224.941 357.845 319.054 357.845 319.054Z" fill="#EEEEEE" stroke="black" stroke-width="1.39887"/>
<path d="M314.408 320.945L315.011 315.705L358.425 317.449L357.468 325.869C355.92 339.483 342.285 348.262 329.251 344.035C319.438 340.853 313.229 331.193 314.408 320.945Z" fill="#F5B9AB" stroke="black" stroke-width="1.39887" stroke-linejoin="round"/>
<path d="M251.832 235.546C223.788 208.356 258.639 118.292 264.322 107.574C272.597 92.2995 297.436 65.7279 330.586 81.6349C380.715 105.689 357.808 224.709 348.797 265.966L251.832 235.546Z" fill="#EEEEEE" stroke="black" stroke-width="1.39887"/>
<path d="M33.4602 329.937L28.9412 289.087C28.9412 289.087 133.862 255.083 220.333 242.325L339.062 252.581C356.896 294.725 348.101 372.179 215.825 336.571L33.4602 329.937Z" fill="#00ADB5" stroke="black" stroke-width="1.39887"/>
<path fill-rule="evenodd" clip-rule="evenodd" d="M160.598 258.366L141.956 316.345L102.843 314.435L84.9972 206.274C82.0407 188.355 95.8646 172.063 114.025 172.063L138.224 172.063L139.896 169.45L148.019 172.063C154.511 172.071 160.39 174.137 165.154 177.575L329.518 230.447C354.937 238.624 366.37 268.136 353.093 291.303L327.949 335.18C314.897 357.956 284.381 363.307 264.358 346.332L160.598 258.366Z" fill="#00ADB5"/>
<path d="M160.598 258.366L161.051 257.832L160.252 257.155L159.931 258.152L160.598 258.366ZM141.956 316.345L141.922 317.045L142.459 317.071L142.623 316.56L141.956 316.345ZM102.843 314.435L102.152 314.549L102.244 315.107L102.809 315.134L102.843 314.435ZM84.9972 206.274L85.6883 206.16L84.9972 206.274ZM114.025 172.063V172.764V172.063ZM138.224 172.063V172.764H138.607L138.814 172.441L138.224 172.063ZM139.896 169.45L140.11 168.784L139.597 168.618L139.306 169.073L139.896 169.45ZM148.019 172.063L147.805 172.73L147.909 172.764L148.018 172.764L148.019 172.063ZM165.154 177.575L164.744 178.143L164.834 178.208L164.94 178.242L165.154 177.575ZM329.518 230.447L329.732 229.78L329.518 230.447ZM353.093 291.303L353.701 291.651L353.093 291.303ZM327.949 335.18L327.341 334.832L327.949 335.18ZM264.358 346.332L264.811 345.798L264.358 346.332ZM159.931 258.152L141.289 316.131L142.623 316.56L161.265 258.581L159.931 258.152ZM141.99 315.646L102.878 313.735L102.809 315.134L141.922 317.045L141.99 315.646ZM103.535 314.321L85.6883 206.16L84.3061 206.388L102.152 314.549L103.535 314.321ZM85.6883 206.16C82.8022 188.668 96.2969 172.764 114.025 172.764L114.025 171.363C95.4322 171.363 81.2792 188.043 84.3061 206.388L85.6883 206.16ZM114.025 172.764L138.224 172.764V171.363L114.025 171.363V172.764ZM138.814 172.441L140.486 169.828L139.306 169.073L137.634 171.686L138.814 172.441ZM139.681 170.117L147.805 172.73L148.234 171.397L140.11 168.784L139.681 170.117ZM148.018 172.764C154.359 172.771 160.095 174.788 164.744 178.143L165.564 177.007C160.684 173.486 154.664 171.371 148.02 171.363L148.018 172.764ZM164.94 178.242L329.303 231.114L329.732 229.78L165.369 176.909L164.94 178.242ZM329.303 231.114C354.298 239.154 365.541 268.174 352.486 290.955L353.701 291.651C367.199 268.098 355.575 238.093 329.732 229.78L329.303 231.114ZM352.486 290.955L327.341 334.832L328.557 335.528L353.701 291.651L352.486 290.955ZM327.341 334.832C314.507 357.227 284.5 362.49 264.811 345.798L263.905 346.866C284.263 364.125 315.287 358.684 328.557 335.528L327.341 334.832ZM264.811 345.798L161.051 257.832L160.145 258.901L263.905 346.866L264.811 345.798Z" fill="black"/>
<path d="M102.394 313.993L142.389 316.359L145.49 349.934C145.49 349.934 110.403 348.917 89.1183 342.26L103.425 335.228L102.394 313.993Z" fill="#EEEEEE" stroke="black" stroke-width="1.39887" stroke-linejoin="round"/>
<rect width="97.773" height="18.3324" rx="2.00878" transform="matrix(0.259192 0.967318 0.967318 -0.259192 88.914 69.2427)" fill="#EEEEEE" stroke="black" stroke-width="1.39887"/>
<rect width="97.773" height="18.3324" rx="2.00878" transform="matrix(-1.00144 0 0 1.00144 208.281 154.245)" fill="#00ADB5" stroke="black" stroke-width="1.39887"/>
<path d="M29.2525 289.116L34.1993 329.958L4.34508 338.197C4.34508 338.197 -1.27966 303.008 1.446 280.531L11.3055 293.484L29.2525 289.116Z" fill="#EEEEEE" stroke="black" stroke-width="1.39887" stroke-linejoin="round"/>
<path d="M177.508 183.484L199.912 146.154L268.604 183.558C265.455 140.39 295.085 78.264 326.198 82.0482C380.782 88.6866 340.569 223.228 304.812 246.944C269.055 270.659 177.508 183.484 177.508 183.484Z" fill="#EEEEEE"/>
<path d="M347.932 164.62C339.484 200.017 321.654 235.774 304.812 246.944C269.056 270.659 177.508 183.484 177.508 183.484L199.912 146.154L268.604 183.558L291.952 124.985" stroke="black" stroke-width="1.39887"/>
<path d="M195.833 143.322L200.123 146.389L177.552 183.515L170.652 178.596C159.494 170.643 158.426 154.461 168.441 145.111C175.982 138.07 187.441 137.322 195.833 143.322Z" fill="#F5B9AB" stroke="black" stroke-width="1.39887" stroke-linejoin="round"/>
</svg>
