<svg width="131" height="106" viewBox="0 0 131 106" fill="none" xmlns="http://www.w3.org/2000/svg">
<path d="M10.3469 64.7925C28.5969 56.2134 44.1312 43.6682 59.6558 31.74C71.8575 22.3649 84.5848 13.026 97.778 4.63739C100.381 2.98215 104.175 -0.18707 107.268 0.636247C110.333 1.4521 111.748 4.44942 114.035 6.06199C119.669 10.0332 124.525 15.1132 128.927 20.0284C133.773 25.4391 124.777 29.7414 118.953 34.2915C112.337 39.4599 105.971 44.7386 98.876 49.4401C92.1319 53.9089 86.4114 59.668 80.1238 64.5761C70.5414 72.0563 61.4615 79.8943 51.9032 87.3783C46.2133 91.8335 39.8636 95.6614 34.3451 100.233C32.4114 101.835 30.5452 103.875 28.378 105.271C26.6374 106.392 24.9137 103.023 24.4355 102.405C20.6409 97.5043 14.1108 94.5923 10.4453 89.4321C8.14056 86.1877 6.86783 82.0076 3.96858 79.1337C2.58456 77.7618 -0.929373 74.7184 1.13865 72.2563C3.25013 69.7425 8.48535 68.0651 11.4874 66.0978C13.8276 64.5643 16.6758 62.6756 19.2596 61.5022C21.1374 60.6494 23.0527 59.2961 24.7749 58.2261C29.3071 55.4103 24.7107 56.9116 21.7449 58.1015" stroke="#00ADB5" stroke-opacity="0.5" stroke-linecap="round" stroke-linejoin="round"/>
<path d="M11.5151 75.1178C21.3313 79.1882 29.7344 85.7285 36.9248 92.3016C37.107 92.4681 38.9545 93.367 38.5911 93.8169C37.8895 94.6857 31.5482 91.829 30.9447 91.5392" stroke="#00ADB5" stroke-opacity="0.5" stroke-linecap="round" stroke-linejoin="round"/>
<path d="M23.0276 66.3546C31.3047 67.3664 35.8792 70.543 42.2251 73.7792C45.0518 75.2207 47.9598 76.4817 50.4278 78.2727C51.5867 79.1137 52.3291 80.309 53.3787 81.2383C54.8172 82.512 48.5525 80.113 47.8134 79.8387" stroke="#00ADB5" stroke-opacity="0.5" stroke-linecap="round" stroke-linejoin="round"/>
<path d="M36.2732 59.0773C41.6526 62.7507 47.0716 66.3608 52.6629 69.8387C54.787 71.1599 57.2463 72.3154 59.0115 73.954C62.1452 76.8629 58.0357 73.0932 56.6057 72.0593" stroke="#00ADB5" stroke-opacity="0.5" stroke-linecap="round" stroke-linejoin="round"/>
<path d="M45.2341 53.9978C49.3706 55.671 53.7142 57.2551 57.0651 59.7608C58.4396 60.7887 59.5216 62.0604 61.015 62.988C62.8548 64.1306 64.411 65.5297 66.2695 66.6325C68.916 68.2028 69.2766 68.7074 66.1504 66.7146" stroke="#00ADB5" stroke-opacity="0.5" stroke-linecap="round" stroke-linejoin="round"/>
<path d="M56.9299 46.414C61.3978 48.9478 65.4941 51.5704 69.0653 54.8718C70.647 56.334 71.8408 58.0926 73.9646 59.1124C75.9102 60.0467 77.341 60.2194 75.1375 58.5938" stroke="#00ADB5" stroke-opacity="0.5" stroke-linecap="round" stroke-linejoin="round"/>
<path d="M68.2402 38.7532C72.1891 40.876 76.1089 42.7787 79.0857 45.7491C80.4484 47.109 81.4473 48.7354 83.0108 49.9553C86.1856 52.4325 83.9287 51.2573 81.6142 49.5938" stroke="#00ADB5" stroke-opacity="0.5" stroke-linecap="round" stroke-linejoin="round"/>
<path d="M78.7755 30.9389C84.1804 34.9184 88.4907 39.8058 93.9142 43.727C97.5661 46.3673 92.4069 42.0588 91.5725 41.2842" stroke="#00ADB5" stroke-opacity="0.5" stroke-linecap="round" stroke-linejoin="round"/>
<path d="M91.24 24.2686C96.5681 22.0249 102.131 19.4387 105.439 15.0434C106.351 13.8314 107.46 12.741 107.947 11.4357C108.616 9.64304 108.429 10.4009 106.663 11.7102" stroke="#00ADB5" stroke-opacity="0.5" stroke-linecap="round" stroke-linejoin="round"/>
<path d="M98.6603 28.9774C103.119 25.5103 108.094 21.7115 111.586 17.5531C113.328 15.479 116.465 12.8342 112.149 16.0353" stroke="#00ADB5" stroke-opacity="0.5" stroke-linecap="round" stroke-linejoin="round"/>
<path d="M110.73 33.8463C114.858 30.2174 118.55 26.8589 122.406 23.1159C123.652 21.9065 127.183 20.1229 123.051 21.4345" stroke="#00ADB5" stroke-opacity="0.5" stroke-linecap="round" stroke-linejoin="round"/>
<path d="M108.028 32.5487C112.25 29.4622 117.038 25.8829 120.557 22.1884C121.496 21.2029 122.261 20.1364 123.137 19.1236C124.602 17.4272 124.608 17.9439 122.691 18.3159" stroke="#00ADB5" stroke-opacity="0.5" stroke-linecap="round" stroke-linejoin="round"/>
<path d="M21.1689 79.3167C41.235 70.8969 48.3401 53.3483 65.3206 41.9724C67.3863 40.5885 69.1131 39.1141 71.4447 38.0552C73.0037 37.3471 74.8719 36.8826 76.3189 36.0379C77.2016 35.5227 84.6273 30.5536 79.6317 32.8224" stroke="#00ADB5" stroke-opacity="0.5" stroke-linecap="round" stroke-linejoin="round"/>
<path d="M12.8664 75.7663C15.3134 73.4188 17.4766 71.4018 20.4212 69.5724C20.9041 69.2723 21.6015 69.1528 22.0165 68.7777C22.8387 68.0349 24.0795 66.9445 24.4796 66.0603C26.0554 62.5779 31.384 62.5925 34.4939 60.5867C37.4523 58.6785 40.3115 56.762 43.3205 54.867C46.6356 52.7793 48.2699 51.091 51.0485 48.5804C53.6008 46.2743 56.0901 43.952 58.7598 41.7404C60.9439 39.9311 64.2292 38.14 65.7618 35.9658C67.4914 33.512 71.4608 30.4807 74.645 30.543C75.7388 30.5645 83.3933 33.4628 78.3826 31.6226" stroke="#00ADB5" stroke-opacity="0.5" stroke-linecap="round" stroke-linejoin="round"/>
<path d="M29.0905 82.0302C44.365 74.2964 54.2267 60.0597 65.3713 48.8916C69.4761 44.778 74.9472 41.7373 79.2108 37.6696C81.0344 35.9297 84.8128 33.8754 80.6831 34.3642" stroke="#00ADB5" stroke-opacity="0.5" stroke-linecap="round" stroke-linejoin="round"/>
<path d="M33.7144 85.2321C47.6825 77.3069 57.7243 64.3475 68.559 53.7555C73.4882 48.9367 78.2793 44.044 83.2568 39.2545C85.5261 37.0709 89.1775 35.4567 84.4312 37.9638" stroke="#00ADB5" stroke-opacity="0.5" stroke-linecap="round" stroke-linejoin="round"/>
<path d="M37.9231 91.3991C46.9686 84.0898 54.5135 76.4506 62.2161 68.3049C66.8997 63.352 71.111 57.9025 76.4391 53.3183C79.4962 50.6881 81.9797 47.731 84.8044 44.9892C85.9423 43.8846 86.7931 42.6509 87.9576 41.5515C90.5807 39.0752 88.6878 41.2617 86.9088 42.6449" stroke="#00ADB5" stroke-opacity="0.5" stroke-linecap="round" stroke-linejoin="round"/>
<path d="M39.4513 93.9873C43.9547 90.3356 50.3292 86.5923 53.614 82.1416C54.8066 80.5258 57.7452 76.6179 59.5792 75.5055C62.0036 74.035 63.4389 71.3235 65.3071 69.5101C67.2527 67.6217 69.1564 65.7783 71.2357 63.9565C73.1856 62.2481 74.1123 59.5293 76.4466 57.9856C79.047 56.2659 80.5267 53.889 82.6811 51.9424C84.5457 50.2576 87.9144 48.3509 90.1281 46.9756C91.3548 46.2135 92.2702 45.2594 93.6269 44.6433C96.3766 43.3945 94.6103 44.0739 92.225 44.2701" stroke="#00ADB5" stroke-opacity="0.5" stroke-linecap="round" stroke-linejoin="round"/>
<path d="M90.7441 25.5034C94.0022 25.8393 98.0734 25.8646 100.928 26.9934C102.77 27.722 104.356 28.4829 101.002 27.1562" stroke="#00ADB5" stroke-opacity="0.5" stroke-linecap="round" stroke-linejoin="round"/>
<path d="M94.8584 20.6058C99.5073 21.0758 102.735 21.8248 106.355 23.4353C108.722 24.4883 108.364 24.1634 105.883 23.1725" stroke="#00ADB5" stroke-opacity="0.5" stroke-linecap="round" stroke-linejoin="round"/>
<path d="M101.3 15.4081C105.153 16.8077 108.848 18.4749 112.875 19.6182C115.244 20.2906 113.94 20.371 112.114 19.8376" stroke="#00ADB5" stroke-opacity="0.5" stroke-linecap="round" stroke-linejoin="round"/>
<path d="M105.115 11.4033C109.219 12.5026 112.985 13.6331 116.689 15.1792C118.378 15.8843 116.722 16.1275 115.448 15.5467" stroke="#00ADB5" stroke-opacity="0.5" stroke-linecap="round" stroke-linejoin="round"/>
<path d="M93.0856 23.6827C96.7875 20.193 100.477 16.866 103.897 13.331C104.869 12.3266 110.721 6.68524 108.136 9.52662" stroke="#00ADB5" stroke-opacity="0.5" stroke-linecap="round" stroke-linejoin="round"/>
<path d="M95.7545 28.7823C100.426 25.2839 107.113 20.5682 109.113 15.8991C109.702 14.525 110.763 13.0988 112.174 12.041C113.604 10.9682 115.023 10.3971 112.861 12.1774" stroke="#00ADB5" stroke-opacity="0.5" stroke-linecap="round" stroke-linejoin="round"/>
<path d="M92.3592 29.0617C97.4384 24.6278 101.68 21.5551 104.914 16.4317C105.754 15.101 106.661 13.9745 107.891 12.8638C109.193 11.6868 110.99 10.5199 108.495 12.6452" stroke="#00ADB5" stroke-opacity="0.5" stroke-linecap="round" stroke-linejoin="round"/>
<path d="M108.931 29.1096C110.87 29.9401 112.825 30.692 114.871 31.3347C115.716 31.6002 114.707 31.0164 114.342 30.9441" stroke="#00ADB5" stroke-opacity="0.5" stroke-linecap="round" stroke-linejoin="round"/>
<path d="M113.731 23.3955C113.859 23.4762 121.276 28.2118 119.997 27.1136" stroke="#00ADB5" stroke-opacity="0.5" stroke-linecap="round" stroke-linejoin="round"/>
<path d="M118.889 20.7998C120.504 21.9977 125.477 25.4733 123.703 24.4203" stroke="#00ADB5" stroke-opacity="0.5" stroke-linecap="round" stroke-linejoin="round"/>
<path d="M106.196 31.6141C109.508 29.0316 116.706 23.8441 118.798 20.2104C119.623 18.7785 122.776 16.704 119.779 18.8813" stroke="#00ADB5" stroke-opacity="0.5" stroke-linecap="round" stroke-linejoin="round"/>
<path d="M106.48 32.242C106.739 32.3935 111.784 36.7209 113.343 34.1741C114.139 32.8741 115.175 31.181 116.802 30.3314C119.655 28.841 120.672 25.0392 123.563 23.7263C126.843 22.2368 126.818 20.3577 124.006 20.0051C122.901 19.8665 124.054 17.9558 122.848 18.2308C121.744 18.4825 121.214 18.2246 119.975 18.5395" stroke="#00ADB5" stroke-opacity="0.5" stroke-linecap="round" stroke-linejoin="round"/>
<path d="M90.459 24.8758C92.0057 27.6795 92.2251 28.7343 95.2244 29.64C96.0339 29.8845 97.2182 29.2871 97.8316 29.4798C99.0452 29.8611 101.587 29.5873 102.68 28.5261C104.879 26.3922 105.762 25.0749 108.883 23.5771C110.853 22.6322 112.596 20.7277 113.66 19.1917C114.83 17.5036 116.706 16.1201 117.929 14.42C118.45 13.6961 115.247 12.3404 115.379 11.1741C115.416 10.8435 111.327 11.2916 110.685 11.0899C109.907 10.8455 109.595 10.4133 109.297 9.75673C108.862 8.79779 107.66 10.1836 106.093 10.4546" stroke="#00ADB5" stroke-opacity="0.5" stroke-linecap="round" stroke-linejoin="round"/>
<path d="M16.9792 70.8687C21.4289 71.769 25.2268 73.147 29.1287 74.7058C32.5164 76.0592 36.491 76.5373 39.8632 77.8392C42.2639 78.766 44.5447 81.2403 46.1877 82.8491C46.7352 83.3851 47.1281 83.9001 47.481 84.5338C48.2908 85.9878 47.7492 82.3142 47.6982 81.9107" stroke="#00ADB5" stroke-opacity="0.5" stroke-linecap="round" stroke-linejoin="round"/>
<path d="M65.8298 37.323C66.967 38.267 71.3491 43.691 70.9485 39.2901" stroke="#00ADB5" stroke-opacity="0.5" stroke-linecap="round" stroke-linejoin="round"/>
</svg>
