<svg width="65" height="68" viewBox="0 0 65 68" fill="none" xmlns="http://www.w3.org/2000/svg">
<path d="M5.89669 26.0906C13.9008 21.9511 22.0617 16.5384 29.2181 11.0038C33.0474 8.04236 37.1683 5.50297 40.8741 2.43747C41.3963 2.00546 42.6824 -0.0318735 43.4579 0.635568C44.6821 1.68906 45.8686 3.5185 46.6171 4.94219C48.7916 9.07784 51.7921 13.228 54.8658 16.7109C57.304 19.4736 59.2837 21.8068 61.1372 25.0173C62.151 26.7732 64.6685 29.1695 64.4879 31.1216C63.9847 36.5642 58.8991 41.6051 55.4086 45.1658C50.2796 50.3982 45.2547 55.6565 39.1558 59.6781C35.3727 62.1726 31.1074 63.4899 27.2382 65.7238C23.6741 67.7816 23.9667 67.5055 20.5724 64.5152C17.2292 61.57 15.1606 58.3743 12.8924 54.4458C11.7117 52.4007 9.60087 50.6348 7.95883 48.9452C6.71514 47.6655 6.26327 45.4807 5.59312 43.8703C4.89024 42.1814 4.95185 37.3379 3.40926 36.3289C1.89729 35.34 0.143078 33.1661 0.567463 31.2189C0.913982 29.6289 14.1551 20.3086 3.09655 30.7129" stroke="#00ADB5" stroke-opacity="0.5" stroke-linecap="round" stroke-linejoin="round"/>
<path d="M1.6833 33.6761C4.69579 35.139 7.62729 37.2398 10.6099 38.6128C11.6012 39.0691 13.2929 38.9834 14.0924 39.6078C16.2571 41.298 22.5087 40.2716 25.1634 40.5153C28.1602 40.7905 36.3728 44.9012 37.474 39.8485C39.5439 30.3506 41.8605 20.896 43.9221 11.4364C44.3116 9.64917 43.7856 7.88477 44.1412 6.25283C45.2239 1.28488 40.4574 4.41983 38.8458 5.35032" stroke="#00ADB5" stroke-opacity="0.5" stroke-linecap="round" stroke-linejoin="round"/>
</svg>
